<?xml version="1.0" encoding="utf-8" standalone="no"?>
<!DOCTYPE svg PUBLIC "-//W3C//DTD SVG 1.1//EN"
  "http://www.w3.org/Graphics/SVG/1.1/DTD/svg11.dtd">
<!-- Created with matplotlib (http://matplotlib.org/) -->
<svg height="414pt" version="1.1" viewBox="0 0 1219 414" width="1219pt" xmlns="http://www.w3.org/2000/svg" xmlns:xlink="http://www.w3.org/1999/xlink">
 <defs>
  <style type="text/css">
*{stroke-linecap:butt;stroke-linejoin:round;}
  </style>
 </defs>
 <g id="figure_1">
  <g id="patch_1">
   <path d="
M0 414.541
L1219.45 414.541
L1219.45 0
L0 0
z
" style="fill:#ffffff;"/>
  </g>
  <g id="axes_1">
   <g id="PolyCollection_1">
    <defs>
     <path d="
M163.435 -64.8938
L163.435 -64.8938
L164.272 -64.8938
L165.108 -64.8938
L165.945 -64.8938
L166.781 -64.8938
L167.618 -64.8938
L168.454 -64.8938
L169.291 -64.8938
L170.127 -64.8938
L170.964 -64.8938
L171.8 -64.8938
L172.637 -64.8938
L173.473 -64.8938
L174.31 -64.8938
L175.146 -64.8938
L175.983 -64.8938
L176.819 -64.8938
L177.656 -64.8938
L178.492 -64.8938
L179.329 -64.8938
L180.165 -64.8938
L181.002 -64.8938
L181.838 -64.8938
L182.675 -64.8938
L183.511 -64.8938
L184.348 -64.8938
L185.184 -64.8938
L186.021 -64.8938
L186.857 -64.8938
L187.694 -64.8938
L188.53 -64.8938
L189.367 -64.8938
L190.203 -64.8938
L191.04 -64.8938
L191.876 -64.8938
L192.713 -64.8938
L193.549 -64.8938
L194.386 -64.8938
L195.222 -64.8938
L196.059 -64.8938
L196.895 -64.8938
L197.732 -64.8938
L198.568 -64.8938
L199.405 -64.8938
L200.241 -64.8938
L201.078 -64.8938
L201.914 -64.8938
L202.751 -64.8938
L203.587 -64.8938
L204.424 -64.8938
L205.26 -64.8938
L206.097 -64.8938
L206.933 -64.8938
L207.77 -64.8938
L208.606 -64.8938
L209.443 -64.8938
L210.279 -64.8938
L211.116 -64.8938
L211.952 -64.8938
L212.789 -64.8938
L213.625 -64.8938
L214.462 -64.8938
L215.298 -64.8938
L216.135 -64.8938
L216.971 -64.8938
L217.808 -64.8938
L218.644 -64.8938
L219.481 -64.8938
L220.317 -64.8938
L221.154 -64.8938
L221.99 -64.8938
L222.827 -64.8938
L223.663 -64.8938
L224.5 -64.8938
L225.336 -64.8938
L226.173 -64.8938
L227.009 -64.8938
L227.846 -64.8938
L228.682 -64.8938
L229.519 -64.8938
L230.355 -64.8938
L231.192 -64.8938
L232.028 -64.8938
L232.865 -64.8938
L233.701 -64.8938
L234.538 -64.8938
L235.374 -64.8938
L236.211 -64.8938
L237.047 -64.8938
L237.884 -64.8938
L238.72 -64.8938
L239.557 -64.8938
L240.393 -64.8938
L241.23 -64.8938
L242.066 -64.8938
L242.903 -64.8938
L243.739 -64.8938
L244.576 -64.8938
L245.412 -64.8938
L246.249 -64.8938
L247.085 -64.8938
L247.922 -64.8938
L248.758 -64.8938
L249.595 -64.8938
L250.431 -64.8938
L251.268 -64.8938
L252.104 -64.8938
L252.941 -64.8938
L253.777 -64.8938
L254.614 -64.8938
L255.45 -64.8938
L256.287 -64.8938
L257.123 -64.8938
L257.96 -64.8938
L258.796 -64.8938
L259.633 -64.8938
L260.469 -64.8938
L261.306 -64.8938
L262.142 -64.8938
L262.979 -64.8938
L263.815 -64.8938
L264.652 -64.8938
L265.488 -64.8938
L266.325 -64.8938
L267.161 -64.8938
L267.998 -64.8938
L268.834 -64.8938
L269.671 -64.8938
L270.507 -64.8938
L271.344 -64.8938
L272.18 -64.8938
L273.017 -64.8938
L273.854 -64.8938
L274.69 -64.8938
L275.527 -64.8938
L276.363 -64.8938
L277.2 -64.8938
L278.036 -64.8938
L278.873 -64.8938
L279.709 -64.8938
L280.546 -64.8938
L281.382 -64.8938
L282.219 -64.8938
L283.055 -64.8938
L283.892 -64.8938
L284.728 -64.8938
L285.565 -64.8938
L286.401 -64.8938
L287.238 -64.8938
L288.074 -64.8938
L288.911 -64.8938
L289.747 -64.8938
L290.584 -64.8938
L291.42 -64.8938
L292.257 -64.8938
L293.093 -64.8938
L293.93 -64.8938
L294.766 -64.8938
L295.603 -64.8938
L296.439 -64.8938
L297.276 -64.8938
L298.112 -64.8938
L298.949 -64.8938
L299.785 -64.8938
L300.622 -64.8938
L301.458 -64.8938
L302.295 -64.8938
L303.131 -64.8938
L303.968 -64.8938
L304.804 -64.8938
L305.641 -64.8938
L306.477 -64.8938
L307.314 -64.8938
L308.15 -64.8938
L308.987 -64.8938
L309.823 -64.8938
L310.66 -64.8938
L311.496 -64.8938
L312.333 -64.8938
L313.169 -64.8938
L314.006 -64.8938
L314.842 -64.8938
L315.679 -64.8938
L316.515 -64.8938
L317.352 -64.8938
L318.188 -64.8938
L319.025 -64.8938
L319.861 -64.8938
L320.698 -64.8938
L321.534 -64.8938
L322.371 -64.8938
L323.207 -64.8938
L324.044 -64.8938
L324.88 -64.8938
L325.717 -64.8938
L326.553 -64.8938
L327.39 -64.8938
L328.226 -64.8938
L329.063 -64.8938
L329.899 -64.8938
L330.736 -64.8938
L331.572 -64.8938
L332.409 -64.8938
L333.245 -64.8938
L334.082 -64.8938
L334.918 -64.8938
L335.755 -64.8938
L336.591 -64.8938
L337.428 -64.8938
L338.264 -64.8938
L339.101 -64.8938
L339.937 -64.8938
L340.774 -64.8938
L341.61 -64.8938
L342.447 -64.8938
L343.283 -64.8938
L344.12 -64.8938
L344.956 -64.8938
L345.793 -64.8938
L346.629 -64.8938
L347.466 -64.8938
L348.302 -64.8938
L349.139 -64.8938
L349.975 -64.8938
L350.812 -64.8938
L351.648 -64.8938
L352.485 -64.8938
L353.321 -64.8938
L354.158 -64.8938
L354.994 -64.8938
L355.831 -64.8938
L356.667 -64.8938
L357.504 -64.8938
L358.34 -64.8938
L359.177 -64.8938
L360.013 -64.8938
L360.85 -64.8938
L361.686 -64.8938
L362.523 -64.8938
L363.359 -64.8938
L364.196 -64.8938
L365.032 -64.8938
L365.869 -64.8938
L366.705 -64.8938
L367.542 -64.8938
L368.378 -64.8938
L369.215 -64.8938
L370.051 -64.8938
L370.888 -64.8938
L371.724 -64.8938
L372.561 -64.8938
L373.397 -64.8938
L374.234 -64.8938
L375.07 -64.8938
L375.907 -64.8938
L376.743 -64.8938
L377.58 -64.8938
L378.416 -64.8938
L379.253 -64.8938
L380.089 -64.8938
L380.926 -64.8938
L381.762 -64.8938
L382.599 -64.8938
L383.435 -64.8938
L384.272 -64.8938
L385.108 -64.8938
L385.945 -64.8938
L386.781 -64.8938
L387.618 -64.8938
L388.454 -64.8938
L389.291 -64.8938
L390.127 -64.8938
L390.964 -64.8938
L391.8 -64.8938
L392.637 -64.8938
L393.473 -64.8938
L394.31 -64.8938
L395.146 -64.8938
L395.983 -64.8938
L396.819 -64.8938
L397.656 -64.8938
L398.492 -64.8938
L399.329 -64.8938
L400.165 -64.8938
L401.002 -64.8938
L401.838 -64.8938
L402.675 -64.8938
L403.511 -64.8938
L404.348 -64.8938
L405.184 -64.8938
L406.021 -64.8938
L406.857 -64.8938
L407.694 -64.8938
L408.53 -64.8938
L409.367 -64.8938
L410.203 -64.8938
L411.04 -64.8938
L411.876 -64.8938
L412.713 -64.8938
L413.549 -64.8938
L414.386 -64.8938
L415.222 -64.8938
L416.059 -64.8938
L416.895 -64.8938
L417.732 -64.8938
L418.568 -64.8938
L419.405 -64.8938
L420.241 -64.8938
L421.078 -64.8938
L421.914 -64.8938
L422.751 -64.8938
L423.587 -64.8938
L424.424 -64.8938
L425.26 -64.8938
L426.097 -64.8938
L426.933 -64.8938
L427.77 -64.8938
L428.606 -64.8938
L429.443 -64.8938
L430.279 -64.8938
L431.116 -64.8938
L431.952 -64.8938
L432.789 -64.8938
L433.625 -64.8938
L434.462 -64.8938
L435.298 -64.8938
L436.135 -64.8938
L436.971 -64.8938
L437.808 -64.8938
L438.644 -64.8938
L439.481 -64.8938
L440.317 -64.8938
L441.154 -64.8938
L441.99 -64.8938
L442.827 -64.8938
L443.663 -64.8938
L444.5 -64.8938
L445.336 -64.8938
L446.173 -64.8938
L447.009 -64.8938
L447.846 -64.8938
L448.682 -64.8938
L449.519 -64.8938
L450.355 -64.8938
L451.192 -64.8938
L452.028 -64.8938
L452.865 -64.8938
L453.701 -64.8938
L454.538 -64.8938
L455.374 -64.8938
L456.211 -64.8938
L457.047 -64.8938
L457.884 -64.8938
L458.72 -64.8938
L459.557 -64.8938
L460.393 -64.8938
L461.23 -64.8938
L462.066 -64.8938
L462.903 -64.8938
L463.739 -64.8938
L464.576 -64.8938
L465.412 -64.8938
L466.249 -64.8938
L467.085 -64.8938
L467.922 -64.8938
L468.758 -64.8938
L469.595 -64.8938
L470.431 -64.8938
L471.268 -64.8938
L472.104 -64.8938
L472.941 -64.8938
L473.777 -64.8938
L474.614 -64.8938
L475.45 -64.8938
L476.287 -64.8938
L477.123 -64.8938
L477.96 -64.8938
L478.796 -64.8938
L479.633 -64.8938
L480.469 -64.8938
L481.306 -64.8938
L482.142 -64.8938
L482.979 -64.8938
L483.815 -64.8938
L484.652 -64.8938
L485.488 -64.8938
L486.325 -64.8938
L487.161 -64.8938
L487.998 -64.8938
L488.834 -64.8938
L489.671 -64.8938
L490.507 -64.8938
L491.344 -64.8938
L492.18 -64.8938
L493.017 -64.8938
L493.853 -64.8938
L494.69 -64.8938
L495.526 -64.8938
L496.363 -64.8938
L497.199 -64.8938
L498.036 -64.8938
L498.872 -64.8938
L499.709 -64.8938
L500.545 -64.8938
L501.382 -64.8938
L502.218 -64.8938
L503.055 -64.8938
L503.891 -64.8938
L504.728 -64.8938
L505.564 -64.8938
L506.401 -64.8938
L507.238 -64.8938
L508.074 -64.8938
L508.911 -64.8938
L509.747 -64.8938
L510.584 -64.8938
L511.42 -64.8938
L512.257 -64.8938
L513.093 -64.8938
L513.93 -64.8938
L514.766 -64.8938
L515.603 -64.8938
L516.439 -64.8938
L517.276 -64.8938
L518.112 -64.8938
L518.949 -64.8938
L519.785 -64.8938
L520.622 -64.8938
L521.458 -64.8938
L522.295 -64.8938
L523.131 -64.8938
L523.968 -64.8938
L524.804 -64.8938
L525.641 -64.8938
L526.477 -64.8938
L527.314 -64.8938
L528.15 -64.8938
L528.987 -64.8938
L529.823 -64.8938
L530.66 -64.8938
L531.496 -64.8938
L532.333 -64.8938
L533.169 -64.8938
L534.006 -64.8938
L534.842 -64.8938
L535.679 -64.8938
L536.515 -64.8938
L537.352 -64.8938
L538.188 -64.8938
L539.025 -64.8938
L539.861 -64.8938
L540.698 -64.8938
L541.534 -64.8938
L542.371 -64.8938
L543.207 -64.8938
L544.044 -64.8938
L544.88 -64.8938
L545.717 -64.8938
L546.553 -64.8938
L547.39 -64.8938
L548.226 -64.8938
L549.063 -64.8938
L549.899 -64.8938
L550.736 -64.8938
L551.572 -64.8938
L552.409 -64.8938
L553.245 -64.8938
L554.082 -64.8938
L554.918 -64.8938
L555.755 -64.8938
L556.591 -64.8938
L557.428 -64.8938
L558.264 -64.8938
L559.101 -64.8938
L559.937 -64.8938
L560.774 -64.8938
L561.61 -64.8938
L562.447 -64.8938
L563.283 -64.8938
L564.12 -64.8938
L564.956 -64.8938
L565.793 -64.8938
L566.629 -64.8938
L567.466 -64.8938
L568.302 -64.8938
L569.139 -64.8938
L569.975 -64.8938
L570.812 -64.8938
L571.648 -64.8938
L572.485 -64.8938
L573.321 -64.8938
L574.158 -64.8938
L574.994 -64.8938
L575.831 -64.8938
L576.667 -64.8938
L577.504 -64.8938
L578.34 -64.8938
L579.177 -64.8938
L580.013 -64.8938
L580.85 -64.8938
L581.686 -64.8938
L582.523 -64.8938
L583.359 -64.8938
L584.196 -64.8938
L585.032 -64.8938
L585.869 -64.8938
L586.705 -64.8938
L587.542 -64.8938
L588.378 -64.8938
L589.215 -64.8938
L590.051 -64.8938
L590.888 -64.8938
L591.724 -64.8938
L592.561 -64.8938
L593.397 -64.8938
L594.234 -64.8938
L595.07 -64.8938
L595.907 -64.8938
L596.743 -64.8938
L597.58 -64.8938
L598.416 -64.8938
L599.253 -64.8938
L600.089 -64.8938
L600.926 -64.8938
L601.762 -64.8938
L602.599 -64.8938
L603.435 -64.8938
L604.272 -64.8938
L605.108 -64.8938
L605.945 -64.8938
L606.781 -64.8938
L607.618 -64.8938
L608.454 -64.8938
L609.291 -64.8938
L610.127 -64.8938
L610.964 -64.8938
L611.8 -64.8938
L612.637 -64.8938
L613.473 -64.8938
L614.31 -64.8938
L615.146 -64.8938
L615.983 -64.8938
L616.819 -64.8938
L617.656 -64.8938
L618.492 -64.8938
L619.329 -64.8938
L620.165 -64.8938
L621.002 -64.8938
L621.838 -64.8938
L622.675 -64.8938
L623.511 -64.8938
L624.348 -64.8938
L625.184 -64.8938
L626.021 -64.8938
L626.857 -64.8938
L627.694 -64.8938
L628.53 -64.8938
L629.367 -64.8938
L630.203 -64.8938
L631.04 -64.8938
L631.876 -64.8938
L632.713 -64.8938
L633.549 -64.8938
L634.386 -64.8938
L635.222 -64.8938
L636.059 -64.8938
L636.895 -64.8938
L637.732 -64.8938
L638.568 -64.8938
L639.405 -64.8938
L640.241 -64.8938
L641.078 -64.8938
L641.914 -64.8938
L642.751 -64.8938
L643.587 -64.8938
L644.424 -64.8938
L645.26 -64.8938
L646.097 -64.8938
L646.933 -64.8938
L647.77 -64.8938
L648.606 -64.8938
L649.443 -64.8938
L650.279 -64.8938
L651.116 -64.8938
L651.952 -64.8938
L652.789 -64.8938
L653.625 -64.8938
L654.462 -64.8938
L655.298 -64.8938
L656.135 -64.8938
L656.971 -64.8938
L657.808 -64.8938
L658.644 -64.8938
L659.481 -64.8938
L660.317 -64.8938
L661.154 -64.8938
L661.99 -64.8938
L662.827 -64.8938
L663.663 -64.8938
L664.5 -64.8938
L665.336 -64.8938
L666.173 -64.8938
L667.009 -64.8938
L667.846 -64.8938
L668.682 -64.8938
L669.519 -64.8938
L670.355 -64.8938
L671.192 -64.8938
L672.028 -64.8938
L672.865 -64.8938
L673.701 -64.8938
L674.538 -64.8938
L675.374 -64.8938
L676.211 -64.8938
L677.047 -64.8938
L677.884 -64.8938
L678.72 -64.8938
L679.557 -64.8938
L680.393 -64.8938
L681.23 -64.8938
L682.066 -64.8938
L682.903 -64.8938
L683.739 -64.8938
L684.576 -64.8938
L685.412 -64.8938
L686.249 -64.8938
L687.085 -64.8938
L687.922 -64.8938
L688.758 -64.8938
L689.595 -64.8938
L690.431 -64.8938
L691.268 -64.8938
L692.104 -64.8938
L692.941 -64.8938
L693.777 -64.8938
L694.614 -64.8938
L695.45 -64.8938
L696.287 -64.8938
L697.123 -64.8938
L697.96 -64.8938
L698.796 -64.8938
L699.633 -64.8938
L700.469 -64.8938
L701.306 -64.8938
L702.142 -64.8938
L702.979 -64.8938
L703.815 -64.8938
L704.652 -64.8938
L705.488 -64.8938
L706.325 -64.8938
L707.161 -64.8938
L707.998 -64.8938
L708.834 -64.8938
L709.671 -64.8938
L710.507 -64.8938
L711.344 -64.8938
L712.18 -64.8938
L713.017 -64.8938
L713.853 -64.8938
L714.69 -64.8938
L715.526 -64.8938
L716.363 -64.8938
L717.199 -64.8938
L718.036 -64.8938
L718.872 -64.8938
L719.709 -64.8938
L720.545 -64.8938
L721.382 -64.8938
L722.218 -64.8938
L723.055 -64.8938
L723.891 -64.8938
L724.728 -64.8938
L725.564 -64.8938
L726.401 -64.8938
L727.237 -64.8938
L728.074 -64.8938
L728.91 -64.8938
L729.747 -64.8938
L730.583 -64.8938
L731.42 -64.8938
L732.256 -64.8938
L733.093 -64.8938
L733.929 -64.8938
L734.766 -64.8938
L735.602 -64.8938
L736.439 -64.8938
L737.275 -64.8938
L738.112 -64.8938
L738.948 -64.8938
L739.785 -64.8938
L740.621 -64.8938
L741.458 -64.8938
L742.295 -64.8938
L743.131 -64.8938
L743.968 -64.8938
L744.804 -64.8938
L745.641 -64.8938
L746.477 -64.8938
L747.314 -64.8938
L748.15 -64.8938
L748.987 -64.8938
L749.823 -64.8938
L750.66 -64.8938
L751.496 -64.8938
L752.333 -64.8938
L753.169 -64.8938
L754.006 -64.8938
L754.842 -64.8938
L755.679 -64.8938
L756.515 -64.8938
L757.352 -64.8938
L758.188 -64.8938
L759.025 -64.8938
L759.861 -64.8938
L760.698 -64.8938
L761.534 -64.8938
L762.371 -64.8938
L763.207 -64.8938
L764.044 -64.8938
L764.88 -64.8938
L765.717 -64.8938
L766.553 -64.8938
L767.39 -64.8938
L768.226 -64.8938
L769.063 -64.8938
L769.899 -64.8938
L770.736 -64.8938
L771.572 -64.8938
L772.409 -64.8938
L773.245 -64.8938
L774.082 -64.8938
L774.918 -64.8938
L775.755 -64.8938
L776.591 -64.8938
L777.428 -64.8938
L778.264 -64.8938
L779.101 -64.8938
L779.937 -64.8938
L780.774 -64.8938
L781.61 -64.8938
L782.447 -64.8938
L783.283 -64.8938
L784.12 -64.8938
L784.956 -64.8938
L785.793 -64.8938
L786.629 -64.8938
L787.466 -64.8938
L788.302 -64.8938
L789.139 -64.8938
L789.975 -64.8938
L790.812 -64.8938
L791.648 -64.8938
L792.485 -64.8938
L793.321 -64.8938
L794.158 -64.8938
L794.994 -64.8938
L795.831 -64.8938
L796.667 -64.8938
L797.504 -64.8938
L798.34 -64.8938
L799.177 -64.8938
L800.013 -64.8938
L800.85 -64.8938
L801.686 -64.8938
L802.523 -64.8938
L803.359 -64.8938
L804.196 -64.8938
L805.032 -64.8938
L805.869 -64.8938
L806.705 -64.8938
L807.542 -64.8938
L808.378 -64.8938
L809.215 -64.8938
L810.051 -64.8938
L810.888 -64.8938
L811.724 -64.8938
L812.561 -64.8938
L813.397 -64.8938
L814.234 -64.8938
L815.07 -64.8938
L815.907 -64.8938
L816.743 -64.8938
L817.58 -64.8938
L818.416 -64.8938
L819.253 -64.8938
L820.089 -64.8938
L820.926 -64.8938
L821.762 -64.8938
L822.599 -64.8938
L823.435 -64.8938
L824.272 -64.8938
L825.108 -64.8938
L825.945 -64.8938
L826.781 -64.8938
L827.618 -64.8938
L828.454 -64.8938
L829.291 -64.8938
L830.127 -64.8938
L830.964 -64.8938
L831.8 -64.8938
L832.637 -64.8938
L833.473 -64.8938
L834.31 -64.8938
L835.146 -64.8938
L835.983 -64.8938
L836.819 -64.8938
L837.656 -64.8938
L838.492 -64.8938
L839.329 -64.8938
L840.165 -64.8938
L841.002 -64.8938
L841.838 -64.8938
L842.675 -64.8938
L843.511 -64.8938
L844.348 -64.8938
L845.184 -64.8938
L846.021 -64.8938
L846.857 -64.8938
L847.694 -64.8938
L848.53 -64.8938
L849.367 -64.8938
L850.203 -64.8938
L851.04 -64.8938
L851.876 -64.8938
L852.713 -64.8938
L853.549 -64.8938
L854.386 -64.8938
L855.222 -64.8938
L856.059 -64.8938
L856.895 -64.8938
L857.732 -64.8938
L858.568 -64.8938
L859.405 -64.8938
L860.241 -64.8938
L861.078 -64.8938
L861.914 -64.8938
L862.751 -64.8938
L863.587 -64.8938
L864.424 -64.8938
L865.26 -64.8938
L866.097 -64.8938
L866.933 -64.8938
L867.77 -64.8938
L868.606 -64.8938
L869.443 -64.8938
L870.279 -64.8938
L871.116 -64.8938
L871.952 -64.8938
L872.789 -64.8938
L873.625 -64.8938
L874.462 -64.8938
L875.298 -64.8938
L876.135 -64.8938
L876.971 -64.8938
L877.808 -64.8938
L878.644 -64.8938
L879.481 -64.8938
L880.317 -64.8938
L881.154 -64.8938
L881.99 -64.8938
L882.827 -64.8938
L883.663 -64.8938
L884.5 -64.8938
L885.336 -64.8938
L886.173 -64.8938
L887.009 -64.8938
L887.846 -64.8938
L888.682 -64.8938
L889.519 -64.8938
L890.355 -64.8938
L891.192 -64.8938
L892.028 -64.8938
L892.865 -64.8938
L893.701 -64.8938
L894.538 -64.8938
L895.374 -64.8938
L896.211 -64.8938
L897.047 -64.8938
L897.884 -64.8938
L898.72 -64.8938
L899.557 -64.8938
L900.393 -64.8938
L901.23 -64.8938
L902.066 -64.8938
L902.903 -64.8938
L903.739 -64.8938
L904.576 -64.8938
L905.412 -64.8938
L906.249 -64.8938
L907.085 -64.8938
L907.922 -64.8938
L908.758 -64.8938
L909.595 -64.8938
L910.431 -64.8938
L911.268 -64.8938
L912.104 -64.8938
L912.941 -64.8938
L913.777 -64.8938
L914.614 -64.8938
L915.45 -64.8938
L916.287 -64.8938
L917.123 -64.8938
L917.96 -64.8938
L918.796 -64.8938
L919.633 -64.8938
L920.469 -64.8938
L921.306 -64.8938
L922.142 -64.8938
L922.979 -64.8938
L923.815 -64.8938
L924.652 -64.8938
L925.488 -64.8938
L926.325 -64.8938
L927.161 -64.8938
L927.998 -64.8938
L928.834 -64.8938
L929.671 -64.8938
L930.507 -64.8938
L931.344 -64.8938
L932.18 -64.8938
L933.017 -64.8938
L933.853 -64.8938
L934.69 -64.8938
L935.526 -64.8938
L936.363 -64.8938
L937.199 -64.8938
L938.036 -64.8938
L938.872 -64.8938
L939.709 -64.8938
L940.545 -64.8938
L941.382 -64.8938
L942.218 -64.8938
L943.055 -64.8938
L943.891 -64.8938
L944.728 -64.8938
L945.564 -64.8938
L946.401 -64.8938
L947.237 -64.8938
L948.074 -64.8938
L948.91 -64.8938
L949.747 -64.8938
L950.583 -64.8938
L951.42 -64.8938
L952.256 -64.8938
L953.093 -64.8938
L953.929 -64.8938
L954.766 -64.8938
L955.602 -64.8938
L956.439 -64.8938
L957.275 -64.8938
L958.112 -64.8938
L958.948 -64.8938
L959.785 -64.8938
L960.621 -64.8938
L961.458 -64.8938
L962.294 -64.8938
L963.131 -64.8938
L963.967 -64.8938
L964.804 -64.8938
L965.64 -64.8938
L966.477 -64.8938
L967.313 -64.8938
L968.15 -64.8938
L968.986 -64.8938
L969.823 -64.8938
L970.659 -64.8938
L971.496 -64.8938
L972.332 -64.8938
L973.169 -64.8938
L974.005 -64.8938
L974.842 -64.8938
L975.679 -64.8938
L976.515 -64.8938
L977.352 -64.8938
L978.188 -64.8938
L979.025 -64.8938
L979.861 -64.8938
L980.698 -64.8938
L981.534 -64.8938
L982.371 -64.8938
L983.207 -64.8938
L984.044 -64.8938
L984.88 -64.8938
L985.717 -64.8938
L986.553 -64.8938
L987.39 -64.8938
L988.226 -64.8938
L989.063 -64.8938
L989.899 -64.8938
L990.736 -64.8938
L991.572 -64.8938
L992.409 -64.8938
L993.245 -64.8938
L994.082 -64.8938
L994.918 -64.8938
L995.755 -64.8938
L996.591 -64.8938
L997.428 -64.8938
L998.264 -64.8938
L999.101 -64.8938
L999.937 -64.8938
L1000.77 -64.8938
L1001.61 -64.8938
L1002.45 -64.8938
L1003.28 -64.8938
L1004.12 -64.8938
L1004.96 -64.8938
L1005.79 -64.8938
L1006.63 -64.8938
L1007.47 -64.8938
L1008.3 -64.8938
L1009.14 -64.8938
L1009.98 -64.8938
L1010.81 -64.8938
L1011.65 -64.8938
L1012.48 -64.8938
L1013.32 -64.8938
L1014.16 -64.8938
L1014.99 -64.8938
L1015.83 -64.8938
L1016.67 -64.8938
L1017.5 -64.8938
L1018.34 -64.8938
L1019.18 -64.8938
L1020.01 -64.8938
L1020.85 -64.8938
L1021.69 -64.8938
L1022.52 -64.8938
L1023.36 -64.8938
L1024.2 -64.8938
L1025.03 -64.8938
L1025.87 -64.8938
L1026.71 -64.8938
L1027.54 -64.8938
L1028.38 -64.8938
L1029.21 -64.8938
L1030.05 -64.8938
L1030.89 -64.8938
L1031.72 -64.8938
L1032.56 -64.8938
L1033.4 -64.8938
L1034.23 -64.8938
L1035.07 -64.8938
L1035.91 -64.8938
L1036.74 -64.8938
L1037.58 -64.8938
L1038.42 -64.8938
L1039.25 -64.8938
L1040.09 -64.8938
L1040.93 -64.8938
L1041.76 -64.8938
L1042.6 -64.8938
L1043.44 -64.8938
L1044.27 -64.8938
L1045.11 -64.8938
L1045.94 -64.8938
L1046.78 -64.8938
L1047.62 -64.8938
L1048.45 -64.8938
L1049.29 -64.8938
L1050.13 -64.8938
L1050.96 -64.8938
L1051.8 -64.8938
L1052.64 -64.8938
L1053.47 -64.8938
L1054.31 -64.8938
L1055.15 -64.8938
L1055.98 -64.8938
L1056.82 -64.8938
L1057.66 -64.8938
L1058.49 -64.8938
L1059.33 -64.8938
L1060.17 -64.8938
L1061 -64.8938
L1061.84 -64.8938
L1062.67 -64.8938
L1063.51 -64.8938
L1064.35 -64.8938
L1065.18 -64.8938
L1066.02 -64.8938
L1066.86 -64.8938
L1067.69 -64.8938
L1068.53 -64.8938
L1069.37 -64.8938
L1070.2 -64.8938
L1071.04 -64.8938
L1071.88 -64.8938
L1072.71 -64.8938
L1073.55 -64.8938
L1074.39 -64.8938
L1075.22 -64.8938
L1076.06 -64.8938
L1076.9 -64.8938
L1077.73 -64.8938
L1078.57 -64.8938
L1079.4 -64.8938
L1080.24 -64.8938
L1081.08 -64.8938
L1081.91 -64.8938
L1082.75 -64.8938
L1083.59 -64.8938
L1084.42 -64.8938
L1085.26 -64.8938
L1086.1 -64.8938
L1086.93 -64.8938
L1087.77 -64.8938
L1088.61 -64.8938
L1089.44 -64.8938
L1090.28 -64.8938
L1091.12 -64.8938
L1091.95 -64.8938
L1092.79 -64.8938
L1093.63 -64.8938
L1094.46 -64.8938
L1095.3 -64.8938
L1096.13 -64.8938
L1096.97 -64.8938
L1097.81 -64.8938
L1098.64 -64.8938
L1099.48 -64.8938
L1100.32 -64.8938
L1101.15 -64.8938
L1101.99 -64.8938
L1102.83 -64.8938
L1103.66 -64.8938
L1104.5 -64.8938
L1105.34 -64.8938
L1106.17 -64.8938
L1107.01 -64.8938
L1107.85 -64.8938
L1108.68 -64.8938
L1109.52 -64.8938
L1110.36 -64.8938
L1111.19 -64.8938
L1112.03 -64.8938
L1112.86 -64.8938
L1113.7 -64.8938
L1114.54 -64.8938
L1115.37 -64.8938
L1116.21 -64.8938
L1117.05 -64.8938
L1117.88 -64.8938
L1118.72 -64.8938
L1119.56 -64.8938
L1120.39 -64.8938
L1121.23 -64.8938
L1122.07 -64.8938
L1122.9 -64.8938
L1123.74 -64.8938
L1124.58 -64.8938
L1125.41 -64.8938
L1126.25 -64.8938
L1127.09 -64.8938
L1127.92 -64.8938
L1128.76 -64.8938
L1129.59 -64.8938
L1130.43 -64.8938
L1131.27 -64.8938
L1132.1 -64.8938
L1132.94 -64.8938
L1133.78 -64.8938
L1134.61 -64.8938
L1135.45 -64.8938
L1136.29 -64.8938
L1137.12 -64.8938
L1137.96 -64.8938
L1138.8 -64.8938
L1139.63 -64.8938
L1140.47 -64.8938
L1141.31 -64.8938
L1142.14 -64.8938
L1142.98 -64.8938
L1143.82 -64.8938
L1144.65 -64.8938
L1145.49 -64.8938
L1146.32 -64.8938
L1147.16 -64.8938
L1148 -64.8938
L1148.83 -64.8938
L1149.67 -64.8938
L1150.51 -64.8938
L1151.34 -64.8938
L1152.18 -64.8938
L1153.02 -64.8938
L1153.85 -64.8938
L1154.69 -64.8938
L1155.53 -64.8938
L1156.36 -64.8938
L1157.2 -64.8938
L1158.04 -64.8938
L1158.87 -64.8938
L1159.71 -64.8938
L1160.55 -64.8938
L1161.38 -64.8938
L1162.22 -64.8938
L1163.05 -64.8938
L1163.89 -64.8938
L1164.73 -64.8938
L1165.56 -64.8938
L1166.4 -64.8938
L1167.24 -64.8938
L1167.24 -71.0432
L1167.24 -71.0432
L1166.4 -71.2935
L1165.56 -71.5527
L1164.73 -71.821
L1163.89 -72.0987
L1163.05 -72.386
L1162.22 -72.6832
L1161.38 -72.9905
L1160.55 -73.3083
L1159.71 -73.6369
L1158.87 -73.9764
L1158.04 -74.3272
L1157.2 -74.6897
L1156.36 -75.064
L1155.53 -75.4505
L1154.69 -75.8495
L1153.85 -76.2613
L1153.02 -76.6863
L1152.18 -77.1247
L1151.34 -77.5768
L1150.51 -78.043
L1149.67 -78.5237
L1148.83 -79.019
L1148 -79.5295
L1147.16 -80.0554
L1146.32 -80.597
L1145.49 -81.1547
L1144.65 -81.7289
L1143.82 -82.3198
L1142.98 -82.9279
L1142.14 -83.5535
L1141.31 -84.1969
L1140.47 -84.8585
L1139.63 -85.5386
L1138.8 -86.2377
L1137.96 -86.956
L1137.12 -87.6939
L1136.29 -88.4518
L1135.45 -89.23
L1134.61 -90.0289
L1133.78 -90.8488
L1132.94 -91.6901
L1132.1 -92.5532
L1131.27 -93.4383
L1130.43 -94.3459
L1129.59 -95.2762
L1128.76 -96.2297
L1127.92 -97.2066
L1127.09 -98.2074
L1126.25 -99.2322
L1125.41 -100.282
L1124.58 -101.356
L1123.74 -102.455
L1122.9 -103.579
L1122.07 -104.73
L1121.23 -105.906
L1120.39 -107.108
L1119.56 -108.337
L1118.72 -109.593
L1117.88 -110.876
L1117.05 -112.187
L1116.21 -113.525
L1115.37 -114.891
L1114.54 -116.285
L1113.7 -117.707
L1112.86 -119.158
L1112.03 -120.638
L1111.19 -122.146
L1110.36 -123.683
L1109.52 -125.25
L1108.68 -126.846
L1107.85 -128.472
L1107.01 -130.127
L1106.17 -131.812
L1105.34 -133.526
L1104.5 -135.271
L1103.66 -137.045
L1102.83 -138.849
L1101.99 -140.684
L1101.15 -142.548
L1100.32 -144.442
L1099.48 -146.366
L1098.64 -148.32
L1097.81 -150.304
L1096.97 -152.317
L1096.13 -154.36
L1095.3 -156.433
L1094.46 -158.535
L1093.63 -160.665
L1092.79 -162.825
L1091.95 -165.013
L1091.12 -167.23
L1090.28 -169.475
L1089.44 -171.748
L1088.61 -174.048
L1087.77 -176.376
L1086.93 -178.731
L1086.1 -181.112
L1085.26 -183.519
L1084.42 -185.951
L1083.59 -188.409
L1082.75 -190.892
L1081.91 -193.399
L1081.08 -195.929
L1080.24 -198.483
L1079.4 -201.059
L1078.57 -203.657
L1077.73 -206.276
L1076.9 -208.916
L1076.06 -211.576
L1075.22 -214.255
L1074.39 -216.952
L1073.55 -219.668
L1072.71 -222.4
L1071.88 -225.149
L1071.04 -227.913
L1070.2 -230.691
L1069.37 -233.483
L1068.53 -236.288
L1067.69 -239.105
L1066.86 -241.932
L1066.02 -244.769
L1065.18 -247.616
L1064.35 -250.47
L1063.51 -253.331
L1062.67 -256.198
L1061.84 -259.07
L1061 -261.945
L1060.17 -264.824
L1059.33 -267.703
L1058.49 -270.583
L1057.66 -273.462
L1056.82 -276.339
L1055.98 -279.213
L1055.15 -282.082
L1054.31 -284.946
L1053.47 -287.803
L1052.64 -290.652
L1051.8 -293.492
L1050.96 -296.321
L1050.13 -299.138
L1049.29 -301.943
L1048.45 -304.732
L1047.62 -307.506
L1046.78 -310.264
L1045.94 -313.002
L1045.11 -315.721
L1044.27 -318.42
L1043.44 -321.096
L1042.6 -323.748
L1041.76 -326.376
L1040.93 -328.978
L1040.09 -331.552
L1039.25 -334.097
L1038.42 -336.612
L1037.58 -339.096
L1036.74 -341.547
L1035.91 -343.965
L1035.07 -346.347
L1034.23 -348.693
L1033.4 -351.001
L1032.56 -353.27
L1031.72 -355.499
L1030.89 -357.687
L1030.05 -359.832
L1029.21 -361.934
L1028.38 -363.99
L1027.54 -366.001
L1026.71 -367.965
L1025.87 -369.88
L1025.03 -371.746
L1024.2 -373.562
L1023.36 -375.326
L1022.52 -377.038
L1021.69 -378.697
L1020.85 -380.302
L1020.01 -381.851
L1019.18 -383.344
L1018.34 -384.78
L1017.5 -386.159
L1016.67 -387.479
L1015.83 -388.739
L1014.99 -389.94
L1014.16 -391.079
L1013.32 -392.157
L1012.48 -393.174
L1011.65 -394.127
L1010.81 -395.017
L1009.98 -395.843
L1009.14 -396.605
L1008.3 -397.303
L1007.47 -397.935
L1006.63 -398.502
L1005.79 -399.002
L1004.96 -399.437
L1004.12 -399.805
L1003.28 -400.107
L1002.45 -400.342
L1001.61 -400.509
L1000.77 -400.61
L999.937 -400.644
L999.101 -400.61
L998.264 -400.509
L997.428 -400.342
L996.591 -400.107
L995.755 -399.805
L994.918 -399.437
L994.082 -399.002
L993.245 -398.502
L992.409 -397.935
L991.572 -397.303
L990.736 -396.605
L989.899 -395.843
L989.063 -395.017
L988.226 -394.127
L987.39 -393.174
L986.553 -392.157
L985.717 -391.079
L984.88 -389.94
L984.044 -388.739
L983.207 -387.479
L982.371 -386.159
L981.534 -384.78
L980.698 -383.344
L979.861 -381.851
L979.025 -380.302
L978.188 -378.697
L977.352 -377.038
L976.515 -375.326
L975.679 -373.562
L974.842 -371.746
L974.005 -369.88
L973.169 -367.965
L972.332 -366.001
L971.496 -363.99
L970.659 -361.934
L969.823 -359.832
L968.986 -357.687
L968.15 -355.499
L967.313 -353.27
L966.477 -351.001
L965.64 -348.693
L964.804 -346.347
L963.967 -343.965
L963.131 -341.547
L962.294 -339.096
L961.458 -336.612
L960.621 -334.097
L959.785 -331.552
L958.948 -328.978
L958.112 -326.376
L957.275 -323.748
L956.439 -321.096
L955.602 -318.42
L954.766 -315.721
L953.929 -313.002
L953.093 -310.264
L952.256 -307.506
L951.42 -304.732
L950.583 -301.943
L949.747 -299.138
L948.91 -296.321
L948.074 -293.492
L947.237 -290.652
L946.401 -287.803
L945.564 -284.946
L944.728 -282.082
L943.891 -279.213
L943.055 -276.339
L942.218 -273.462
L941.382 -270.583
L940.545 -267.703
L939.709 -264.824
L938.872 -261.945
L938.036 -259.07
L937.199 -256.198
L936.363 -253.331
L935.526 -250.47
L934.69 -247.616
L933.853 -244.769
L933.017 -241.932
L932.18 -239.105
L931.344 -236.288
L930.507 -233.483
L929.671 -230.691
L928.834 -227.913
L927.998 -225.149
L927.161 -222.4
L926.325 -219.668
L925.488 -216.952
L924.652 -214.255
L923.815 -211.576
L922.979 -208.916
L922.142 -206.276
L921.306 -203.657
L920.469 -201.059
L919.633 -198.483
L918.796 -195.929
L917.96 -193.399
L917.123 -190.892
L916.287 -188.409
L915.45 -185.951
L914.614 -183.519
L913.777 -181.112
L912.941 -178.731
L912.104 -176.376
L911.268 -174.048
L910.431 -171.748
L909.595 -169.475
L908.758 -167.23
L907.922 -165.013
L907.085 -162.825
L906.249 -160.665
L905.412 -158.535
L904.576 -156.433
L903.739 -154.36
L902.903 -152.317
L902.066 -150.304
L901.23 -148.32
L900.393 -146.366
L899.557 -144.442
L898.72 -142.548
L897.884 -140.684
L897.047 -138.849
L896.211 -137.045
L895.374 -135.271
L894.538 -133.526
L893.701 -131.812
L892.865 -130.127
L892.028 -128.472
L891.192 -126.846
L890.355 -125.25
L889.519 -123.683
L888.682 -122.146
L887.846 -120.638
L887.009 -119.158
L886.173 -117.707
L885.336 -116.285
L884.5 -114.891
L883.663 -113.525
L882.827 -112.187
L881.99 -110.876
L881.154 -109.593
L880.317 -108.337
L879.481 -107.108
L878.644 -105.906
L877.808 -104.73
L876.971 -103.579
L876.135 -102.455
L875.298 -101.356
L874.462 -100.282
L873.625 -99.2322
L872.789 -98.2074
L871.952 -97.2066
L871.116 -96.2297
L870.279 -95.2762
L869.443 -94.3459
L868.606 -93.4383
L867.77 -92.5532
L866.933 -91.6901
L866.097 -90.8488
L865.26 -90.0289
L864.424 -89.23
L863.587 -88.4518
L862.751 -87.6939
L861.914 -86.956
L861.078 -86.2377
L860.241 -85.5386
L859.405 -84.8585
L858.568 -84.1969
L857.732 -83.5535
L856.895 -82.9279
L856.059 -82.3198
L855.222 -81.7289
L854.386 -81.1547
L853.549 -80.597
L852.713 -80.0554
L851.876 -79.5295
L851.04 -79.019
L850.203 -78.5237
L849.367 -78.043
L848.53 -77.5768
L847.694 -77.1247
L846.857 -76.6863
L846.021 -76.2613
L845.184 -75.8495
L844.348 -75.4505
L843.511 -75.064
L842.675 -74.6897
L841.838 -74.3272
L841.002 -73.9764
L840.165 -73.6369
L839.329 -73.3083
L838.492 -72.9905
L837.656 -72.6832
L836.819 -72.386
L835.983 -72.0987
L835.146 -71.821
L834.31 -71.5527
L833.473 -71.2935
L832.637 -71.0432
L831.8 -70.8015
L830.964 -70.5682
L830.127 -70.3429
L829.291 -70.1256
L828.454 -69.9159
L827.618 -69.7137
L826.781 -69.5187
L825.945 -69.3307
L825.108 -69.1495
L824.272 -68.9748
L823.435 -68.8066
L822.599 -68.6445
L821.762 -68.4885
L820.926 -68.3382
L820.089 -68.1936
L819.253 -68.0544
L818.416 -67.9204
L817.58 -67.7916
L816.743 -67.6677
L815.907 -67.5485
L815.07 -67.434
L814.234 -67.3239
L813.397 -67.2182
L812.561 -67.1165
L811.724 -67.019
L810.888 -66.9252
L810.051 -66.8353
L809.215 -66.7489
L808.378 -66.666
L807.542 -66.5865
L806.705 -66.5103
L805.869 -66.4371
L805.032 -66.367
L804.196 -66.2998
L803.359 -66.2354
L802.523 -66.1736
L801.686 -66.1145
L800.85 -66.0579
L800.013 -66.0036
L799.177 -65.9517
L798.34 -65.9021
L797.504 -65.8545
L796.667 -65.809
L795.831 -65.7655
L794.994 -65.7239
L794.158 -65.6841
L793.321 -65.6461
L792.485 -65.6098
L791.648 -65.5751
L790.812 -65.5419
L789.975 -65.5102
L789.139 -65.48
L788.302 -65.4511
L787.466 -65.4236
L786.629 -65.3973
L785.793 -65.3722
L784.956 -65.3483
L784.12 -65.3254
L783.283 -65.3037
L782.447 -65.283
L781.61 -65.2632
L780.774 -65.2444
L779.937 -65.2264
L779.101 -65.2094
L778.264 -65.1931
L777.428 -65.1776
L776.591 -65.1629
L775.755 -65.1489
L774.918 -65.1355
L774.082 -65.1228
L773.245 -65.1108
L772.409 -65.0993
L771.572 -65.0884
L770.736 -65.078
L769.899 -65.0682
L769.063 -65.0588
L768.226 -65.05
L767.39 -65.0415
L766.553 -65.0335
L765.717 -65.0259
L764.88 -65.0187
L764.044 -65.0119
L763.207 -65.0054
L762.371 -64.9992
L761.534 -64.9934
L760.698 -64.9879
L759.861 -64.9826
L759.025 -64.9777
L758.188 -64.973
L757.352 -64.9685
L756.515 -64.9643
L755.679 -64.9603
L754.842 -64.9565
L754.006 -64.9529
L753.169 -64.9495
L752.333 -64.9463
L751.496 -64.9433
L750.66 -64.9404
L749.823 -64.9377
L748.987 -64.9352
L748.15 -64.9328
L747.314 -64.9305
L746.477 -64.9283
L745.641 -64.9263
L744.804 -64.9244
L743.968 -64.9226
L743.131 -64.9208
L742.295 -64.9192
L741.458 -64.9177
L740.621 -64.9163
L739.785 -64.9149
L738.948 -64.9136
L738.112 -64.9124
L737.275 -64.9113
L736.439 -64.9102
L735.602 -64.9092
L734.766 -64.9083
L733.929 -64.9074
L733.093 -64.9065
L732.256 -64.9057
L731.42 -64.905
L730.583 -64.9043
L729.747 -64.9036
L728.91 -64.903
L728.074 -64.9024
L727.237 -64.9019
L726.401 -64.9014
L725.564 -64.9009
L724.728 -64.9004
L723.891 -64.9
L723.055 -64.8996
L722.218 -64.8992
L721.382 -64.8989
L720.545 -64.8985
L719.709 -64.8982
L718.872 -64.8979
L718.036 -64.8977
L717.199 -64.8974
L716.363 -64.8972
L715.526 -64.897
L714.69 -64.8967
L713.853 -64.8965
L713.017 -64.8964
L712.18 -64.8962
L711.344 -64.896
L710.507 -64.8959
L709.671 -64.8957
L708.834 -64.8956
L707.998 -64.8955
L707.161 -64.8954
L706.325 -64.8952
L705.488 -64.8951
L704.652 -64.8951
L703.815 -64.895
L702.979 -64.8949
L702.142 -64.8948
L701.306 -64.8947
L700.469 -64.8947
L699.633 -64.8946
L698.796 -64.8945
L697.96 -64.8945
L697.123 -64.8944
L696.287 -64.8944
L695.45 -64.8943
L694.614 -64.8943
L693.777 -64.8943
L692.941 -64.8942
L692.104 -64.8942
L691.268 -64.8942
L690.431 -64.8941
L689.595 -64.8941
L688.758 -64.8941
L687.922 -64.8941
L687.085 -64.894
L686.249 -64.894
L685.412 -64.894
L684.576 -64.894
L683.739 -64.894
L682.903 -64.8939
L682.066 -64.8939
L681.23 -64.8939
L680.393 -64.8939
L679.557 -64.8939
L678.72 -64.8939
L677.884 -64.8939
L677.047 -64.8939
L676.211 -64.8939
L675.374 -64.8938
L674.538 -64.8938
L673.701 -64.8938
L672.865 -64.8938
L672.028 -64.8938
L671.192 -64.8938
L670.355 -64.8938
L669.519 -64.8938
L668.682 -64.8938
L667.846 -64.8938
L667.009 -64.8938
L666.173 -64.8938
L665.336 -64.8938
L664.5 -64.8938
L663.663 -64.8938
L662.827 -64.8938
L661.99 -64.8938
L661.154 -64.8938
L660.317 -64.8938
L659.481 -64.8938
L658.644 -64.8938
L657.808 -64.8938
L656.971 -64.8938
L656.135 -64.8938
L655.298 -64.8938
L654.462 -64.8938
L653.625 -64.8938
L652.789 -64.8938
L651.952 -64.8938
L651.116 -64.8938
L650.279 -64.8938
L649.443 -64.8938
L648.606 -64.8938
L647.77 -64.8938
L646.933 -64.8938
L646.097 -64.8938
L645.26 -64.8938
L644.424 -64.8938
L643.587 -64.8938
L642.751 -64.8938
L641.914 -64.8938
L641.078 -64.8938
L640.241 -64.8938
L639.405 -64.8938
L638.568 -64.8938
L637.732 -64.8938
L636.895 -64.8938
L636.059 -64.8938
L635.222 -64.8938
L634.386 -64.8938
L633.549 -64.8938
L632.713 -64.8938
L631.876 -64.8938
L631.04 -64.8938
L630.203 -64.8938
L629.367 -64.8938
L628.53 -64.8938
L627.694 -64.8938
L626.857 -64.8938
L626.021 -64.8938
L625.184 -64.8938
L624.348 -64.8938
L623.511 -64.8938
L622.675 -64.8938
L621.838 -64.8938
L621.002 -64.8938
L620.165 -64.8938
L619.329 -64.8938
L618.492 -64.8938
L617.656 -64.8938
L616.819 -64.8938
L615.983 -64.8938
L615.146 -64.8938
L614.31 -64.8938
L613.473 -64.8938
L612.637 -64.8938
L611.8 -64.8938
L610.964 -64.8938
L610.127 -64.8938
L609.291 -64.8938
L608.454 -64.8938
L607.618 -64.8938
L606.781 -64.8938
L605.945 -64.8938
L605.108 -64.8938
L604.272 -64.8938
L603.435 -64.8938
L602.599 -64.8938
L601.762 -64.8938
L600.926 -64.8938
L600.089 -64.8938
L599.253 -64.8938
L598.416 -64.8938
L597.58 -64.8938
L596.743 -64.8938
L595.907 -64.8938
L595.07 -64.8938
L594.234 -64.8938
L593.397 -64.8938
L592.561 -64.8938
L591.724 -64.8938
L590.888 -64.8938
L590.051 -64.8938
L589.215 -64.8938
L588.378 -64.8938
L587.542 -64.8938
L586.705 -64.8938
L585.869 -64.8938
L585.032 -64.8938
L584.196 -64.8938
L583.359 -64.8938
L582.523 -64.8938
L581.686 -64.8938
L580.85 -64.8938
L580.013 -64.8938
L579.177 -64.8938
L578.34 -64.8938
L577.504 -64.8938
L576.667 -64.8938
L575.831 -64.8938
L574.994 -64.8938
L574.158 -64.8938
L573.321 -64.8938
L572.485 -64.8938
L571.648 -64.8938
L570.812 -64.8938
L569.975 -64.8938
L569.139 -64.8938
L568.302 -64.8938
L567.466 -64.8938
L566.629 -64.8938
L565.793 -64.8938
L564.956 -64.8938
L564.12 -64.8938
L563.283 -64.8938
L562.447 -64.8938
L561.61 -64.8938
L560.774 -64.8938
L559.937 -64.8938
L559.101 -64.8938
L558.264 -64.8938
L557.428 -64.8938
L556.591 -64.8938
L555.755 -64.8938
L554.918 -64.8938
L554.082 -64.8938
L553.245 -64.8938
L552.409 -64.8938
L551.572 -64.8938
L550.736 -64.8938
L549.899 -64.8938
L549.063 -64.8938
L548.226 -64.8938
L547.39 -64.8938
L546.553 -64.8938
L545.717 -64.8938
L544.88 -64.8938
L544.044 -64.8938
L543.207 -64.8938
L542.371 -64.8938
L541.534 -64.8938
L540.698 -64.8938
L539.861 -64.8938
L539.025 -64.8938
L538.188 -64.8938
L537.352 -64.8938
L536.515 -64.8938
L535.679 -64.8938
L534.842 -64.8938
L534.006 -64.8938
L533.169 -64.8938
L532.333 -64.8938
L531.496 -64.8938
L530.66 -64.8938
L529.823 -64.8938
L528.987 -64.8938
L528.15 -64.8938
L527.314 -64.8938
L526.477 -64.8938
L525.641 -64.8938
L524.804 -64.8938
L523.968 -64.8938
L523.131 -64.8938
L522.295 -64.8938
L521.458 -64.8938
L520.622 -64.8938
L519.785 -64.8938
L518.949 -64.8938
L518.112 -64.8938
L517.276 -64.8938
L516.439 -64.8938
L515.603 -64.8938
L514.766 -64.8938
L513.93 -64.8938
L513.093 -64.8938
L512.257 -64.8938
L511.42 -64.8938
L510.584 -64.8938
L509.747 -64.8938
L508.911 -64.8938
L508.074 -64.8938
L507.238 -64.8938
L506.401 -64.8938
L505.564 -64.8938
L504.728 -64.8938
L503.891 -64.8938
L503.055 -64.8938
L502.218 -64.8938
L501.382 -64.8938
L500.545 -64.8938
L499.709 -64.8938
L498.872 -64.8938
L498.036 -64.8938
L497.199 -64.8938
L496.363 -64.8938
L495.526 -64.8938
L494.69 -64.8938
L493.853 -64.8938
L493.017 -64.8938
L492.18 -64.8938
L491.344 -64.8938
L490.507 -64.8938
L489.671 -64.8938
L488.834 -64.8938
L487.998 -64.8938
L487.161 -64.8938
L486.325 -64.8938
L485.488 -64.8938
L484.652 -64.8938
L483.815 -64.8938
L482.979 -64.8938
L482.142 -64.8938
L481.306 -64.8938
L480.469 -64.8938
L479.633 -64.8938
L478.796 -64.8938
L477.96 -64.8938
L477.123 -64.8938
L476.287 -64.8938
L475.45 -64.8938
L474.614 -64.8938
L473.777 -64.8938
L472.941 -64.8938
L472.104 -64.8938
L471.268 -64.8938
L470.431 -64.8938
L469.595 -64.8938
L468.758 -64.8938
L467.922 -64.8938
L467.085 -64.8938
L466.249 -64.8938
L465.412 -64.8938
L464.576 -64.8938
L463.739 -64.8938
L462.903 -64.8938
L462.066 -64.8938
L461.23 -64.8938
L460.393 -64.8938
L459.557 -64.8938
L458.72 -64.8938
L457.884 -64.8938
L457.047 -64.8938
L456.211 -64.8938
L455.374 -64.8938
L454.538 -64.8938
L453.701 -64.8938
L452.865 -64.8938
L452.028 -64.8938
L451.192 -64.8938
L450.355 -64.8938
L449.519 -64.8938
L448.682 -64.8938
L447.846 -64.8938
L447.009 -64.8938
L446.173 -64.8938
L445.336 -64.8938
L444.5 -64.8938
L443.663 -64.8938
L442.827 -64.8938
L441.99 -64.8938
L441.154 -64.8938
L440.317 -64.8938
L439.481 -64.8938
L438.644 -64.8938
L437.808 -64.8938
L436.971 -64.8938
L436.135 -64.8938
L435.298 -64.8938
L434.462 -64.8938
L433.625 -64.8938
L432.789 -64.8938
L431.952 -64.8938
L431.116 -64.8938
L430.279 -64.8938
L429.443 -64.8938
L428.606 -64.8938
L427.77 -64.8938
L426.933 -64.8938
L426.097 -64.8938
L425.26 -64.8938
L424.424 -64.8938
L423.587 -64.8938
L422.751 -64.8938
L421.914 -64.8938
L421.078 -64.8938
L420.241 -64.8938
L419.405 -64.8938
L418.568 -64.8938
L417.732 -64.8938
L416.895 -64.8938
L416.059 -64.8938
L415.222 -64.8938
L414.386 -64.8938
L413.549 -64.8938
L412.713 -64.8938
L411.876 -64.8938
L411.04 -64.8938
L410.203 -64.8938
L409.367 -64.8938
L408.53 -64.8938
L407.694 -64.8938
L406.857 -64.8938
L406.021 -64.8938
L405.184 -64.8938
L404.348 -64.8938
L403.511 -64.8938
L402.675 -64.8938
L401.838 -64.8938
L401.002 -64.8938
L400.165 -64.8938
L399.329 -64.8938
L398.492 -64.8938
L397.656 -64.8938
L396.819 -64.8938
L395.983 -64.8938
L395.146 -64.8938
L394.31 -64.8938
L393.473 -64.8938
L392.637 -64.8938
L391.8 -64.8938
L390.964 -64.8938
L390.127 -64.8938
L389.291 -64.8938
L388.454 -64.8938
L387.618 -64.8938
L386.781 -64.8938
L385.945 -64.8938
L385.108 -64.8938
L384.272 -64.8938
L383.435 -64.8938
L382.599 -64.8938
L381.762 -64.8938
L380.926 -64.8938
L380.089 -64.8938
L379.253 -64.8938
L378.416 -64.8938
L377.58 -64.8938
L376.743 -64.8938
L375.907 -64.8938
L375.07 -64.8938
L374.234 -64.8938
L373.397 -64.8938
L372.561 -64.8938
L371.724 -64.8938
L370.888 -64.8938
L370.051 -64.8938
L369.215 -64.8938
L368.378 -64.8938
L367.542 -64.8938
L366.705 -64.8938
L365.869 -64.8938
L365.032 -64.8938
L364.196 -64.8938
L363.359 -64.8938
L362.523 -64.8938
L361.686 -64.8938
L360.85 -64.8938
L360.013 -64.8938
L359.177 -64.8938
L358.34 -64.8938
L357.504 -64.8938
L356.667 -64.8938
L355.831 -64.8938
L354.994 -64.8938
L354.158 -64.8938
L353.321 -64.8938
L352.485 -64.8938
L351.648 -64.8938
L350.812 -64.8938
L349.975 -64.8938
L349.139 -64.8938
L348.302 -64.8938
L347.466 -64.8938
L346.629 -64.8938
L345.793 -64.8938
L344.956 -64.8938
L344.12 -64.8938
L343.283 -64.8938
L342.447 -64.8938
L341.61 -64.8938
L340.774 -64.8938
L339.937 -64.8938
L339.101 -64.8938
L338.264 -64.8938
L337.428 -64.8938
L336.591 -64.8938
L335.755 -64.8938
L334.918 -64.8938
L334.082 -64.8938
L333.245 -64.8938
L332.409 -64.8938
L331.572 -64.8938
L330.736 -64.8938
L329.899 -64.8938
L329.063 -64.8938
L328.226 -64.8938
L327.39 -64.8938
L326.553 -64.8938
L325.717 -64.8938
L324.88 -64.8938
L324.044 -64.8938
L323.207 -64.8938
L322.371 -64.8938
L321.534 -64.8938
L320.698 -64.8938
L319.861 -64.8938
L319.025 -64.8938
L318.188 -64.8938
L317.352 -64.8938
L316.515 -64.8938
L315.679 -64.8938
L314.842 -64.8938
L314.006 -64.8938
L313.169 -64.8938
L312.333 -64.8938
L311.496 -64.8938
L310.66 -64.8938
L309.823 -64.8938
L308.987 -64.8938
L308.15 -64.8938
L307.314 -64.8938
L306.477 -64.8938
L305.641 -64.8938
L304.804 -64.8938
L303.968 -64.8938
L303.131 -64.8938
L302.295 -64.8938
L301.458 -64.8938
L300.622 -64.8938
L299.785 -64.8938
L298.949 -64.8938
L298.112 -64.8938
L297.276 -64.8938
L296.439 -64.8938
L295.603 -64.8938
L294.766 -64.8938
L293.93 -64.8938
L293.093 -64.8938
L292.257 -64.8938
L291.42 -64.8938
L290.584 -64.8938
L289.747 -64.8938
L288.911 -64.8938
L288.074 -64.8938
L287.238 -64.8938
L286.401 -64.8938
L285.565 -64.8938
L284.728 -64.8938
L283.892 -64.8938
L283.055 -64.8938
L282.219 -64.8938
L281.382 -64.8938
L280.546 -64.8938
L279.709 -64.8938
L278.873 -64.8938
L278.036 -64.8938
L277.2 -64.8938
L276.363 -64.8938
L275.527 -64.8938
L274.69 -64.8938
L273.854 -64.8938
L273.017 -64.8938
L272.18 -64.8938
L271.344 -64.8938
L270.507 -64.8938
L269.671 -64.8938
L268.834 -64.8938
L267.998 -64.8938
L267.161 -64.8938
L266.325 -64.8938
L265.488 -64.8938
L264.652 -64.8938
L263.815 -64.8938
L262.979 -64.8938
L262.142 -64.8938
L261.306 -64.8938
L260.469 -64.8938
L259.633 -64.8938
L258.796 -64.8938
L257.96 -64.8938
L257.123 -64.8938
L256.287 -64.8938
L255.45 -64.8938
L254.614 -64.8938
L253.777 -64.8938
L252.941 -64.8938
L252.104 -64.8938
L251.268 -64.8938
L250.431 -64.8938
L249.595 -64.8938
L248.758 -64.8938
L247.922 -64.8938
L247.085 -64.8938
L246.249 -64.8938
L245.412 -64.8938
L244.576 -64.8938
L243.739 -64.8938
L242.903 -64.8938
L242.066 -64.8938
L241.23 -64.8938
L240.393 -64.8938
L239.557 -64.8938
L238.72 -64.8938
L237.884 -64.8938
L237.047 -64.8938
L236.211 -64.8938
L235.374 -64.8938
L234.538 -64.8938
L233.701 -64.8938
L232.865 -64.8938
L232.028 -64.8938
L231.192 -64.8938
L230.355 -64.8938
L229.519 -64.8938
L228.682 -64.8938
L227.846 -64.8938
L227.009 -64.8938
L226.173 -64.8938
L225.336 -64.8938
L224.5 -64.8938
L223.663 -64.8938
L222.827 -64.8938
L221.99 -64.8938
L221.154 -64.8938
L220.317 -64.8938
L219.481 -64.8938
L218.644 -64.8938
L217.808 -64.8938
L216.971 -64.8938
L216.135 -64.8938
L215.298 -64.8938
L214.462 -64.8938
L213.625 -64.8938
L212.789 -64.8938
L211.952 -64.8938
L211.116 -64.8938
L210.279 -64.8938
L209.443 -64.8938
L208.606 -64.8938
L207.77 -64.8938
L206.933 -64.8938
L206.097 -64.8938
L205.26 -64.8938
L204.424 -64.8938
L203.587 -64.8938
L202.751 -64.8938
L201.914 -64.8938
L201.078 -64.8938
L200.241 -64.8938
L199.405 -64.8938
L198.568 -64.8938
L197.732 -64.8938
L196.895 -64.8938
L196.059 -64.8938
L195.222 -64.8938
L194.386 -64.8938
L193.549 -64.8938
L192.713 -64.8938
L191.876 -64.8938
L191.04 -64.8938
L190.203 -64.8938
L189.367 -64.8938
L188.53 -64.8938
L187.694 -64.8938
L186.857 -64.8938
L186.021 -64.8938
L185.184 -64.8938
L184.348 -64.8938
L183.511 -64.8938
L182.675 -64.8938
L181.838 -64.8938
L181.002 -64.8938
L180.165 -64.8938
L179.329 -64.8938
L178.492 -64.8938
L177.656 -64.8938
L176.819 -64.8938
L175.983 -64.8938
L175.146 -64.8938
L174.31 -64.8938
L173.473 -64.8938
L172.637 -64.8938
L171.8 -64.8938
L170.964 -64.8938
L170.127 -64.8938
L169.291 -64.8938
L168.454 -64.8938
L167.618 -64.8938
L166.781 -64.8938
L165.945 -64.8938
L165.108 -64.8938
L164.272 -64.8938
L163.435 -64.8938
z
" id="C0_0_7e9d3781cd"/>
    </defs>
    <g clip-path="url(#p763f09ebec)">
     <use style="fill:#008000;fill-opacity:0.5;stroke:#008000;stroke-opacity:0.5;" x="0.0" xlink:href="#C0_0_7e9d3781cd" y="414.540625"/>
    </g>
   </g>
   <g id="PolyCollection_2">
    <defs>
     <path d="
M163.435 -65.3773
L163.435 -64.8938
L164.272 -64.8938
L165.108 -64.8938
L165.945 -64.8938
L166.781 -64.8938
L167.618 -64.8938
L168.454 -64.8938
L169.291 -64.8938
L170.127 -64.8938
L170.964 -64.8938
L171.8 -64.8938
L172.637 -64.8938
L173.473 -64.8938
L174.31 -64.8938
L175.146 -64.8938
L175.983 -64.8938
L176.819 -64.8938
L177.656 -64.8938
L178.492 -64.8938
L179.329 -64.8938
L180.165 -64.8938
L181.002 -64.8938
L181.838 -64.8938
L182.675 -64.8938
L183.511 -64.8938
L184.348 -64.8938
L185.184 -64.8938
L186.021 -64.8938
L186.857 -64.8938
L187.694 -64.8938
L188.53 -64.8938
L189.367 -64.8938
L190.203 -64.8938
L191.04 -64.8938
L191.876 -64.8938
L192.713 -64.8938
L193.549 -64.8938
L194.386 -64.8938
L195.222 -64.8938
L196.059 -64.8938
L196.895 -64.8938
L197.732 -64.8938
L198.568 -64.8938
L199.405 -64.8938
L200.241 -64.8938
L201.078 -64.8938
L201.914 -64.8938
L202.751 -64.8938
L203.587 -64.8938
L204.424 -64.8938
L205.26 -64.8938
L206.097 -64.8938
L206.933 -64.8938
L207.77 -64.8938
L208.606 -64.8938
L209.443 -64.8938
L210.279 -64.8938
L211.116 -64.8938
L211.952 -64.8938
L212.789 -64.8938
L213.625 -64.8938
L214.462 -64.8938
L215.298 -64.8938
L216.135 -64.8938
L216.971 -64.8938
L217.808 -64.8938
L218.644 -64.8938
L219.481 -64.8938
L220.317 -64.8938
L221.154 -64.8938
L221.99 -64.8938
L222.827 -64.8938
L223.663 -64.8938
L224.5 -64.8938
L225.336 -64.8938
L226.173 -64.8938
L227.009 -64.8938
L227.846 -64.8938
L228.682 -64.8938
L229.519 -64.8938
L230.355 -64.8938
L231.192 -64.8938
L232.028 -64.8938
L232.865 -64.8938
L233.701 -64.8938
L234.538 -64.8938
L235.374 -64.8938
L236.211 -64.8938
L237.047 -64.8938
L237.884 -64.8938
L238.72 -64.8938
L239.557 -64.8938
L240.393 -64.8938
L241.23 -64.8938
L242.066 -64.8938
L242.903 -64.8938
L243.739 -64.8938
L244.576 -64.8938
L245.412 -64.8938
L246.249 -64.8938
L247.085 -64.8938
L247.922 -64.8938
L248.758 -64.8938
L249.595 -64.8938
L250.431 -64.8938
L251.268 -64.8938
L252.104 -64.8938
L252.941 -64.8938
L253.777 -64.8938
L254.614 -64.8938
L255.45 -64.8938
L256.287 -64.8938
L257.123 -64.8938
L257.96 -64.8938
L258.796 -64.8938
L259.633 -64.8938
L260.469 -64.8938
L261.306 -64.8938
L262.142 -64.8938
L262.979 -64.8938
L263.815 -64.8938
L264.652 -64.8938
L265.488 -64.8938
L266.325 -64.8938
L267.161 -64.8938
L267.998 -64.8938
L268.834 -64.8938
L269.671 -64.8938
L270.507 -64.8938
L271.344 -64.8938
L272.18 -64.8938
L273.017 -64.8938
L273.854 -64.8938
L274.69 -64.8938
L275.527 -64.8938
L276.363 -64.8938
L277.2 -64.8938
L278.036 -64.8938
L278.873 -64.8938
L279.709 -64.8938
L280.546 -64.8938
L281.382 -64.8938
L282.219 -64.8938
L283.055 -64.8938
L283.892 -64.8938
L284.728 -64.8938
L285.565 -64.8938
L286.401 -64.8938
L287.238 -64.8938
L288.074 -64.8938
L288.911 -64.8938
L289.747 -64.8938
L290.584 -64.8938
L291.42 -64.8938
L292.257 -64.8938
L293.093 -64.8938
L293.93 -64.8938
L294.766 -64.8938
L295.603 -64.8938
L296.439 -64.8938
L297.276 -64.8938
L298.112 -64.8938
L298.949 -64.8938
L299.785 -64.8938
L300.622 -64.8938
L301.458 -64.8938
L302.295 -64.8938
L303.131 -64.8938
L303.968 -64.8938
L304.804 -64.8938
L305.641 -64.8938
L306.477 -64.8938
L307.314 -64.8938
L308.15 -64.8938
L308.987 -64.8938
L309.823 -64.8938
L310.66 -64.8938
L311.496 -64.8938
L312.333 -64.8938
L313.169 -64.8938
L314.006 -64.8938
L314.842 -64.8938
L315.679 -64.8938
L316.515 -64.8938
L317.352 -64.8938
L318.188 -64.8938
L319.025 -64.8938
L319.861 -64.8938
L320.698 -64.8938
L321.534 -64.8938
L322.371 -64.8938
L323.207 -64.8938
L324.044 -64.8938
L324.88 -64.8938
L325.717 -64.8938
L326.553 -64.8938
L327.39 -64.8938
L328.226 -64.8938
L329.063 -64.8938
L329.899 -64.8938
L330.736 -64.8938
L331.572 -64.8938
L332.409 -64.8938
L333.245 -64.8938
L334.082 -64.8938
L334.918 -64.8938
L335.755 -64.8938
L336.591 -64.8938
L337.428 -64.8938
L338.264 -64.8938
L339.101 -64.8938
L339.937 -64.8938
L340.774 -64.8938
L341.61 -64.8938
L342.447 -64.8938
L343.283 -64.8938
L344.12 -64.8938
L344.956 -64.8938
L345.793 -64.8938
L346.629 -64.8938
L347.466 -64.8938
L348.302 -64.8938
L349.139 -64.8938
L349.975 -64.8938
L350.812 -64.8938
L351.648 -64.8938
L352.485 -64.8938
L353.321 -64.8938
L354.158 -64.8938
L354.994 -64.8938
L355.831 -64.8938
L356.667 -64.8938
L357.504 -64.8938
L358.34 -64.8938
L359.177 -64.8938
L360.013 -64.8938
L360.85 -64.8938
L361.686 -64.8938
L362.523 -64.8938
L363.359 -64.8938
L364.196 -64.8938
L365.032 -64.8938
L365.869 -64.8938
L366.705 -64.8938
L367.542 -64.8938
L368.378 -64.8938
L369.215 -64.8938
L370.051 -64.8938
L370.888 -64.8938
L371.724 -64.8938
L372.561 -64.8938
L373.397 -64.8938
L374.234 -64.8938
L375.07 -64.8938
L375.907 -64.8938
L376.743 -64.8938
L377.58 -64.8938
L378.416 -64.8938
L379.253 -64.8938
L380.089 -64.8938
L380.926 -64.8938
L381.762 -64.8938
L382.599 -64.8938
L383.435 -64.8938
L384.272 -64.8938
L385.108 -64.8938
L385.945 -64.8938
L386.781 -64.8938
L387.618 -64.8938
L388.454 -64.8938
L389.291 -64.8938
L390.127 -64.8938
L390.964 -64.8938
L391.8 -64.8938
L392.637 -64.8938
L393.473 -64.8938
L394.31 -64.8938
L395.146 -64.8938
L395.983 -64.8938
L396.819 -64.8938
L397.656 -64.8938
L398.492 -64.8938
L399.329 -64.8938
L400.165 -64.8938
L401.002 -64.8938
L401.838 -64.8938
L402.675 -64.8938
L403.511 -64.8938
L404.348 -64.8938
L405.184 -64.8938
L406.021 -64.8938
L406.857 -64.8938
L407.694 -64.8938
L408.53 -64.8938
L409.367 -64.8938
L410.203 -64.8938
L411.04 -64.8938
L411.876 -64.8938
L412.713 -64.8938
L413.549 -64.8938
L414.386 -64.8938
L415.222 -64.8938
L416.059 -64.8938
L416.895 -64.8938
L417.732 -64.8938
L418.568 -64.8938
L419.405 -64.8938
L420.241 -64.8938
L421.078 -64.8938
L421.914 -64.8938
L422.751 -64.8938
L423.587 -64.8938
L424.424 -64.8938
L425.26 -64.8938
L426.097 -64.8938
L426.933 -64.8938
L427.77 -64.8938
L428.606 -64.8938
L429.443 -64.8938
L430.279 -64.8938
L431.116 -64.8938
L431.952 -64.8938
L432.789 -64.8938
L433.625 -64.8938
L434.462 -64.8938
L435.298 -64.8938
L436.135 -64.8938
L436.971 -64.8938
L437.808 -64.8938
L438.644 -64.8938
L439.481 -64.8938
L440.317 -64.8938
L441.154 -64.8938
L441.99 -64.8938
L442.827 -64.8938
L443.663 -64.8938
L444.5 -64.8938
L445.336 -64.8938
L446.173 -64.8938
L447.009 -64.8938
L447.846 -64.8938
L448.682 -64.8938
L449.519 -64.8938
L450.355 -64.8938
L451.192 -64.8938
L452.028 -64.8938
L452.865 -64.8938
L453.701 -64.8938
L454.538 -64.8938
L455.374 -64.8938
L456.211 -64.8938
L457.047 -64.8938
L457.884 -64.8938
L458.72 -64.8938
L459.557 -64.8938
L460.393 -64.8938
L461.23 -64.8938
L462.066 -64.8938
L462.903 -64.8938
L463.739 -64.8938
L464.576 -64.8938
L465.412 -64.8938
L466.249 -64.8938
L467.085 -64.8938
L467.922 -64.8938
L468.758 -64.8938
L469.595 -64.8938
L470.431 -64.8938
L471.268 -64.8938
L472.104 -64.8938
L472.941 -64.8938
L473.777 -64.8938
L474.614 -64.8938
L475.45 -64.8938
L476.287 -64.8938
L477.123 -64.8938
L477.96 -64.8938
L478.796 -64.8938
L479.633 -64.8938
L480.469 -64.8938
L481.306 -64.8938
L482.142 -64.8938
L482.979 -64.8938
L483.815 -64.8938
L484.652 -64.8938
L485.488 -64.8938
L486.325 -64.8938
L487.161 -64.8938
L487.998 -64.8938
L488.834 -64.8938
L489.671 -64.8938
L490.507 -64.8938
L491.344 -64.8938
L492.18 -64.8938
L493.017 -64.8938
L493.853 -64.8938
L494.69 -64.8938
L495.526 -64.8938
L496.363 -64.8938
L497.199 -64.8938
L498.036 -64.8938
L498.872 -64.8938
L499.709 -64.8938
L500.545 -64.8938
L501.382 -64.8938
L502.218 -64.8938
L503.055 -64.8938
L503.891 -64.8938
L504.728 -64.8938
L505.564 -64.8938
L506.401 -64.8938
L507.238 -64.8938
L508.074 -64.8938
L508.911 -64.8938
L509.747 -64.8938
L510.584 -64.8938
L511.42 -64.8938
L512.257 -64.8938
L513.093 -64.8938
L513.93 -64.8938
L514.766 -64.8938
L515.603 -64.8938
L516.439 -64.8938
L517.276 -64.8938
L518.112 -64.8938
L518.949 -64.8938
L519.785 -64.8938
L520.622 -64.8938
L521.458 -64.8938
L522.295 -64.8938
L523.131 -64.8938
L523.968 -64.8938
L524.804 -64.8938
L525.641 -64.8938
L526.477 -64.8938
L527.314 -64.8938
L528.15 -64.8938
L528.987 -64.8938
L529.823 -64.8938
L530.66 -64.8938
L531.496 -64.8938
L532.333 -64.8938
L533.169 -64.8938
L534.006 -64.8938
L534.842 -64.8938
L535.679 -64.8938
L536.515 -64.8938
L537.352 -64.8938
L538.188 -64.8938
L539.025 -64.8938
L539.861 -64.8938
L540.698 -64.8938
L541.534 -64.8938
L542.371 -64.8938
L543.207 -64.8938
L544.044 -64.8938
L544.88 -64.8938
L545.717 -64.8938
L546.553 -64.8938
L547.39 -64.8938
L548.226 -64.8938
L549.063 -64.8938
L549.899 -64.8938
L550.736 -64.8938
L551.572 -64.8938
L552.409 -64.8938
L553.245 -64.8938
L554.082 -64.8938
L554.918 -64.8938
L555.755 -64.8938
L556.591 -64.8938
L557.428 -64.8938
L558.264 -64.8938
L559.101 -64.8938
L559.937 -64.8938
L560.774 -64.8938
L561.61 -64.8938
L562.447 -64.8938
L563.283 -64.8938
L564.12 -64.8938
L564.956 -64.8938
L565.793 -64.8938
L566.629 -64.8938
L567.466 -64.8938
L568.302 -64.8938
L569.139 -64.8938
L569.975 -64.8938
L570.812 -64.8938
L571.648 -64.8938
L572.485 -64.8938
L573.321 -64.8938
L574.158 -64.8938
L574.994 -64.8938
L575.831 -64.8938
L576.667 -64.8938
L577.504 -64.8938
L578.34 -64.8938
L579.177 -64.8938
L580.013 -64.8938
L580.85 -64.8938
L581.686 -64.8938
L582.523 -64.8938
L583.359 -64.8938
L584.196 -64.8938
L585.032 -64.8938
L585.869 -64.8938
L586.705 -64.8938
L587.542 -64.8938
L588.378 -64.8938
L589.215 -64.8938
L590.051 -64.8938
L590.888 -64.8938
L591.724 -64.8938
L592.561 -64.8938
L593.397 -64.8938
L594.234 -64.8938
L595.07 -64.8938
L595.907 -64.8938
L596.743 -64.8938
L597.58 -64.8938
L598.416 -64.8938
L599.253 -64.8938
L600.089 -64.8938
L600.926 -64.8938
L601.762 -64.8938
L602.599 -64.8938
L603.435 -64.8938
L604.272 -64.8938
L605.108 -64.8938
L605.945 -64.8938
L606.781 -64.8938
L607.618 -64.8938
L608.454 -64.8938
L609.291 -64.8938
L610.127 -64.8938
L610.964 -64.8938
L611.8 -64.8938
L612.637 -64.8938
L613.473 -64.8938
L614.31 -64.8938
L615.146 -64.8938
L615.983 -64.8938
L616.819 -64.8938
L617.656 -64.8938
L618.492 -64.8938
L619.329 -64.8938
L620.165 -64.8938
L621.002 -64.8938
L621.838 -64.8938
L622.675 -64.8938
L623.511 -64.8938
L624.348 -64.8938
L625.184 -64.8938
L626.021 -64.8938
L626.857 -64.8938
L627.694 -64.8938
L628.53 -64.8938
L629.367 -64.8938
L630.203 -64.8938
L631.04 -64.8938
L631.876 -64.8938
L632.713 -64.8938
L633.549 -64.8938
L634.386 -64.8938
L635.222 -64.8938
L636.059 -64.8938
L636.895 -64.8938
L637.732 -64.8938
L638.568 -64.8938
L639.405 -64.8938
L640.241 -64.8938
L641.078 -64.8938
L641.914 -64.8938
L642.751 -64.8938
L643.587 -64.8938
L644.424 -64.8938
L645.26 -64.8938
L646.097 -64.8938
L646.933 -64.8938
L647.77 -64.8938
L648.606 -64.8938
L649.443 -64.8938
L650.279 -64.8938
L651.116 -64.8938
L651.952 -64.8938
L652.789 -64.8938
L653.625 -64.8938
L654.462 -64.8938
L655.298 -64.8938
L656.135 -64.8938
L656.971 -64.8938
L657.808 -64.8938
L658.644 -64.8938
L659.481 -64.8938
L660.317 -64.8938
L661.154 -64.8938
L661.99 -64.8938
L662.827 -64.8938
L663.663 -64.8938
L664.5 -64.8938
L665.336 -64.8938
L666.173 -64.8938
L667.009 -64.8938
L667.846 -64.8938
L668.682 -64.8938
L669.519 -64.8938
L670.355 -64.8938
L671.192 -64.8938
L672.028 -64.8938
L672.865 -64.8938
L673.701 -64.8938
L674.538 -64.8938
L675.374 -64.8938
L676.211 -64.8938
L677.047 -64.8938
L677.884 -64.8938
L678.72 -64.8938
L679.557 -64.8938
L680.393 -64.8938
L681.23 -64.8938
L682.066 -64.8938
L682.903 -64.8938
L683.739 -64.8938
L684.576 -64.8938
L685.412 -64.8938
L686.249 -64.8938
L687.085 -64.8938
L687.922 -64.8938
L688.758 -64.8938
L689.595 -64.8938
L690.431 -64.8938
L691.268 -64.8938
L692.104 -64.8938
L692.941 -64.8938
L693.777 -64.8938
L694.614 -64.8938
L695.45 -64.8938
L696.287 -64.8938
L697.123 -64.8938
L697.96 -64.8938
L698.796 -64.8938
L699.633 -64.8938
L700.469 -64.8938
L701.306 -64.8938
L702.142 -64.8938
L702.979 -64.8938
L703.815 -64.8938
L704.652 -64.8938
L705.488 -64.8938
L706.325 -64.8938
L707.161 -64.8938
L707.998 -64.8938
L708.834 -64.8938
L709.671 -64.8938
L710.507 -64.8938
L711.344 -64.8938
L712.18 -64.8938
L713.017 -64.8938
L713.853 -64.8938
L714.69 -64.8938
L715.526 -64.8938
L716.363 -64.8938
L717.199 -64.8938
L718.036 -64.8938
L718.872 -64.8938
L719.709 -64.8938
L720.545 -64.8938
L721.382 -64.8938
L722.218 -64.8938
L723.055 -64.8938
L723.891 -64.8938
L724.728 -64.8938
L725.564 -64.8938
L726.401 -64.8938
L727.237 -64.8938
L728.074 -64.8938
L728.91 -64.8938
L729.747 -64.8938
L730.583 -64.8938
L731.42 -64.8938
L732.256 -64.8938
L733.093 -64.8938
L733.929 -64.8938
L734.766 -64.8938
L735.602 -64.8938
L736.439 -64.8938
L737.275 -64.8938
L738.112 -64.8938
L738.948 -64.8938
L739.785 -64.8938
L740.621 -64.8938
L741.458 -64.8938
L742.295 -64.8938
L743.131 -64.8938
L743.968 -64.8938
L744.804 -64.8938
L745.641 -64.8938
L746.477 -64.8938
L747.314 -64.8938
L748.15 -64.8938
L748.987 -64.8938
L749.823 -64.8938
L750.66 -64.8938
L751.496 -64.8938
L752.333 -64.8938
L753.169 -64.8938
L754.006 -64.8938
L754.842 -64.8938
L755.679 -64.8938
L756.515 -64.8938
L757.352 -64.8938
L758.188 -64.8938
L759.025 -64.8938
L759.861 -64.8938
L760.698 -64.8938
L761.534 -64.8938
L762.371 -64.8938
L763.207 -64.8938
L764.044 -64.8938
L764.88 -64.8938
L765.717 -64.8938
L766.553 -64.8938
L767.39 -64.8938
L768.226 -64.8938
L769.063 -64.8938
L769.899 -64.8938
L770.736 -64.8938
L771.572 -64.8938
L772.409 -64.8938
L773.245 -64.8938
L774.082 -64.8938
L774.918 -64.8938
L775.755 -64.8938
L776.591 -64.8938
L777.428 -64.8938
L778.264 -64.8938
L779.101 -64.8938
L779.937 -64.8938
L780.774 -64.8938
L781.61 -64.8938
L782.447 -64.8938
L783.283 -64.8938
L784.12 -64.8938
L784.956 -64.8938
L785.793 -64.8938
L786.629 -64.8938
L787.466 -64.8938
L788.302 -64.8938
L789.139 -64.8938
L789.975 -64.8938
L790.812 -64.8938
L791.648 -64.8938
L792.485 -64.8938
L793.321 -64.8938
L794.158 -64.8938
L794.994 -64.8938
L795.831 -64.8938
L796.667 -64.8938
L797.504 -64.8938
L798.34 -64.8938
L799.177 -64.8938
L800.013 -64.8938
L800.85 -64.8938
L801.686 -64.8938
L802.523 -64.8938
L803.359 -64.8938
L804.196 -64.8938
L805.032 -64.8938
L805.869 -64.8938
L806.705 -64.8938
L807.542 -64.8938
L808.378 -64.8938
L809.215 -64.8938
L810.051 -64.8938
L810.888 -64.8938
L811.724 -64.8938
L812.561 -64.8938
L813.397 -64.8938
L814.234 -64.8938
L815.07 -64.8938
L815.907 -64.8938
L816.743 -64.8938
L817.58 -64.8938
L818.416 -64.8938
L819.253 -64.8938
L820.089 -64.8938
L820.926 -64.8938
L821.762 -64.8938
L822.599 -64.8938
L823.435 -64.8938
L824.272 -64.8938
L825.108 -64.8938
L825.945 -64.8938
L826.781 -64.8938
L827.618 -64.8938
L828.454 -64.8938
L829.291 -64.8938
L830.127 -64.8938
L830.964 -64.8938
L831.8 -64.8938
L832.637 -64.8938
L833.473 -64.8938
L834.31 -64.8938
L835.146 -64.8938
L835.983 -64.8938
L836.819 -64.8938
L837.656 -64.8938
L838.492 -64.8938
L839.329 -64.8938
L840.165 -64.8938
L841.002 -64.8938
L841.838 -64.8938
L842.675 -64.8938
L843.511 -64.8938
L844.348 -64.8938
L845.184 -64.8938
L846.021 -64.8938
L846.857 -64.8938
L847.694 -64.8938
L848.53 -64.8938
L849.367 -64.8938
L850.203 -64.8938
L851.04 -64.8938
L851.876 -64.8938
L852.713 -64.8938
L853.549 -64.8938
L854.386 -64.8938
L855.222 -64.8938
L856.059 -64.8938
L856.895 -64.8938
L857.732 -64.8938
L858.568 -64.8938
L859.405 -64.8938
L860.241 -64.8938
L861.078 -64.8938
L861.914 -64.8938
L862.751 -64.8938
L863.587 -64.8938
L864.424 -64.8938
L865.26 -64.8938
L866.097 -64.8938
L866.933 -64.8938
L867.77 -64.8938
L868.606 -64.8938
L869.443 -64.8938
L870.279 -64.8938
L871.116 -64.8938
L871.952 -64.8938
L872.789 -64.8938
L873.625 -64.8938
L874.462 -64.8938
L875.298 -64.8938
L876.135 -64.8938
L876.971 -64.8938
L877.808 -64.8938
L878.644 -64.8938
L879.481 -64.8938
L880.317 -64.8938
L881.154 -64.8938
L881.99 -64.8938
L882.827 -64.8938
L883.663 -64.8938
L884.5 -64.8938
L885.336 -64.8938
L886.173 -64.8938
L887.009 -64.8938
L887.846 -64.8938
L888.682 -64.8938
L889.519 -64.8938
L890.355 -64.8938
L891.192 -64.8938
L892.028 -64.8938
L892.865 -64.8938
L893.701 -64.8938
L894.538 -64.8938
L895.374 -64.8938
L896.211 -64.8938
L897.047 -64.8938
L897.884 -64.8938
L898.72 -64.8938
L899.557 -64.8938
L900.393 -64.8938
L901.23 -64.8938
L902.066 -64.8938
L902.903 -64.8938
L903.739 -64.8938
L904.576 -64.8938
L905.412 -64.8938
L906.249 -64.8938
L907.085 -64.8938
L907.922 -64.8938
L908.758 -64.8938
L909.595 -64.8938
L910.431 -64.8938
L911.268 -64.8938
L912.104 -64.8938
L912.941 -64.8938
L913.777 -64.8938
L914.614 -64.8938
L915.45 -64.8938
L916.287 -64.8938
L917.123 -64.8938
L917.96 -64.8938
L918.796 -64.8938
L919.633 -64.8938
L920.469 -64.8938
L921.306 -64.8938
L922.142 -64.8938
L922.979 -64.8938
L923.815 -64.8938
L924.652 -64.8938
L925.488 -64.8938
L926.325 -64.8938
L927.161 -64.8938
L927.998 -64.8938
L928.834 -64.8938
L929.671 -64.8938
L930.507 -64.8938
L931.344 -64.8938
L932.18 -64.8938
L933.017 -64.8938
L933.853 -64.8938
L934.69 -64.8938
L935.526 -64.8938
L936.363 -64.8938
L937.199 -64.8938
L938.036 -64.8938
L938.872 -64.8938
L939.709 -64.8938
L940.545 -64.8938
L941.382 -64.8938
L942.218 -64.8938
L943.055 -64.8938
L943.891 -64.8938
L944.728 -64.8938
L945.564 -64.8938
L946.401 -64.8938
L947.237 -64.8938
L948.074 -64.8938
L948.91 -64.8938
L949.747 -64.8938
L950.583 -64.8938
L951.42 -64.8938
L952.256 -64.8938
L953.093 -64.8938
L953.929 -64.8938
L954.766 -64.8938
L955.602 -64.8938
L956.439 -64.8938
L957.275 -64.8938
L958.112 -64.8938
L958.948 -64.8938
L959.785 -64.8938
L960.621 -64.8938
L961.458 -64.8938
L962.294 -64.8938
L963.131 -64.8938
L963.967 -64.8938
L964.804 -64.8938
L965.64 -64.8938
L966.477 -64.8938
L967.313 -64.8938
L968.15 -64.8938
L968.986 -64.8938
L969.823 -64.8938
L970.659 -64.8938
L971.496 -64.8938
L972.332 -64.8938
L973.169 -64.8938
L974.005 -64.8938
L974.842 -64.8938
L975.679 -64.8938
L976.515 -64.8938
L977.352 -64.8938
L978.188 -64.8938
L979.025 -64.8938
L979.861 -64.8938
L980.698 -64.8938
L981.534 -64.8938
L982.371 -64.8938
L983.207 -64.8938
L984.044 -64.8938
L984.88 -64.8938
L985.717 -64.8938
L986.553 -64.8938
L987.39 -64.8938
L988.226 -64.8938
L989.063 -64.8938
L989.899 -64.8938
L990.736 -64.8938
L991.572 -64.8938
L992.409 -64.8938
L993.245 -64.8938
L994.082 -64.8938
L994.918 -64.8938
L995.755 -64.8938
L996.591 -64.8938
L997.428 -64.8938
L998.264 -64.8938
L999.101 -64.8938
L999.937 -64.8938
L1000.77 -64.8938
L1001.61 -64.8938
L1002.45 -64.8938
L1003.28 -64.8938
L1004.12 -64.8938
L1004.96 -64.8938
L1005.79 -64.8938
L1006.63 -64.8938
L1007.47 -64.8938
L1008.3 -64.8938
L1009.14 -64.8938
L1009.98 -64.8938
L1010.81 -64.8938
L1011.65 -64.8938
L1012.48 -64.8938
L1013.32 -64.8938
L1014.16 -64.8938
L1014.99 -64.8938
L1015.83 -64.8938
L1016.67 -64.8938
L1017.5 -64.8938
L1018.34 -64.8938
L1019.18 -64.8938
L1020.01 -64.8938
L1020.85 -64.8938
L1021.69 -64.8938
L1022.52 -64.8938
L1023.36 -64.8938
L1024.2 -64.8938
L1025.03 -64.8938
L1025.87 -64.8938
L1026.71 -64.8938
L1027.54 -64.8938
L1028.38 -64.8938
L1029.21 -64.8938
L1030.05 -64.8938
L1030.89 -64.8938
L1031.72 -64.8938
L1032.56 -64.8938
L1033.4 -64.8938
L1034.23 -64.8938
L1035.07 -64.8938
L1035.91 -64.8938
L1036.74 -64.8938
L1037.58 -64.8938
L1038.42 -64.8938
L1039.25 -64.8938
L1040.09 -64.8938
L1040.93 -64.8938
L1041.76 -64.8938
L1042.6 -64.8938
L1043.44 -64.8938
L1044.27 -64.8938
L1045.11 -64.8938
L1045.94 -64.8938
L1046.78 -64.8938
L1047.62 -64.8938
L1048.45 -64.8938
L1049.29 -64.8938
L1050.13 -64.8938
L1050.96 -64.8938
L1051.8 -64.8938
L1052.64 -64.8938
L1053.47 -64.8938
L1054.31 -64.8938
L1055.15 -64.8938
L1055.98 -64.8938
L1056.82 -64.8938
L1057.66 -64.8938
L1058.49 -64.8938
L1059.33 -64.8938
L1060.17 -64.8938
L1061 -64.8938
L1061.84 -64.8938
L1062.67 -64.8938
L1063.51 -64.8938
L1064.35 -64.8938
L1065.18 -64.8938
L1066.02 -64.8938
L1066.86 -64.8938
L1067.69 -64.8938
L1068.53 -64.8938
L1069.37 -64.8938
L1070.2 -64.8938
L1071.04 -64.8938
L1071.88 -64.8938
L1072.71 -64.8938
L1073.55 -64.8938
L1074.39 -64.8938
L1075.22 -64.8938
L1076.06 -64.8938
L1076.9 -64.8938
L1077.73 -64.8938
L1078.57 -64.8938
L1079.4 -64.8938
L1080.24 -64.8938
L1081.08 -64.8938
L1081.91 -64.8938
L1082.75 -64.8938
L1083.59 -64.8938
L1084.42 -64.8938
L1085.26 -64.8938
L1086.1 -64.8938
L1086.93 -64.8938
L1087.77 -64.8938
L1088.61 -64.8938
L1089.44 -64.8938
L1090.28 -64.8938
L1091.12 -64.8938
L1091.95 -64.8938
L1092.79 -64.8938
L1093.63 -64.8938
L1094.46 -64.8938
L1095.3 -64.8938
L1096.13 -64.8938
L1096.97 -64.8938
L1097.81 -64.8938
L1098.64 -64.8938
L1099.48 -64.8938
L1100.32 -64.8938
L1101.15 -64.8938
L1101.99 -64.8938
L1102.83 -64.8938
L1103.66 -64.8938
L1104.5 -64.8938
L1105.34 -64.8938
L1106.17 -64.8938
L1107.01 -64.8938
L1107.85 -64.8938
L1108.68 -64.8938
L1109.52 -64.8938
L1110.36 -64.8938
L1111.19 -64.8938
L1112.03 -64.8938
L1112.86 -64.8938
L1113.7 -64.8938
L1114.54 -64.8938
L1115.37 -64.8938
L1116.21 -64.8938
L1117.05 -64.8938
L1117.88 -64.8938
L1118.72 -64.8938
L1119.56 -64.8938
L1120.39 -64.8938
L1121.23 -64.8938
L1122.07 -64.8938
L1122.9 -64.8938
L1123.74 -64.8938
L1124.58 -64.8938
L1125.41 -64.8938
L1126.25 -64.8938
L1127.09 -64.8938
L1127.92 -64.8938
L1128.76 -64.8938
L1129.59 -64.8938
L1130.43 -64.8938
L1131.27 -64.8938
L1132.1 -64.8938
L1132.94 -64.8938
L1133.78 -64.8938
L1134.61 -64.8938
L1135.45 -64.8938
L1136.29 -64.8938
L1137.12 -64.8938
L1137.96 -64.8938
L1138.8 -64.8938
L1139.63 -64.8938
L1140.47 -64.8938
L1141.31 -64.8938
L1142.14 -64.8938
L1142.98 -64.8938
L1143.82 -64.8938
L1144.65 -64.8938
L1145.49 -64.8938
L1146.32 -64.8938
L1147.16 -64.8938
L1148 -64.8938
L1148.83 -64.8938
L1149.67 -64.8938
L1150.51 -64.8938
L1151.34 -64.8938
L1152.18 -64.8938
L1153.02 -64.8938
L1153.85 -64.8938
L1154.69 -64.8938
L1155.53 -64.8938
L1156.36 -64.8938
L1157.2 -64.8938
L1158.04 -64.8938
L1158.87 -64.8938
L1159.71 -64.8938
L1160.55 -64.8938
L1161.38 -64.8938
L1162.22 -64.8938
L1163.05 -64.8938
L1163.89 -64.8938
L1164.73 -64.8938
L1165.56 -64.8938
L1166.4 -64.8938
L1167.24 -64.8938
L1167.24 -71.8523
L1167.24 -71.8523
L1166.4 -71.93
L1165.56 -72.0084
L1164.73 -72.0875
L1163.89 -72.1673
L1163.05 -72.2478
L1162.22 -72.3291
L1161.38 -72.4111
L1160.55 -72.4938
L1159.71 -72.5773
L1158.87 -72.6615
L1158.04 -72.7464
L1157.2 -72.8321
L1156.36 -72.9186
L1155.53 -73.0058
L1154.69 -73.0938
L1153.85 -73.1826
L1153.02 -73.2721
L1152.18 -73.3624
L1151.34 -73.4535
L1150.51 -73.5454
L1149.67 -73.6381
L1148.83 -73.7316
L1148 -73.8259
L1147.16 -73.921
L1146.32 -74.0168
L1145.49 -74.1136
L1144.65 -74.2111
L1143.82 -74.3094
L1142.98 -74.4086
L1142.14 -74.5086
L1141.31 -74.6094
L1140.47 -74.7111
L1139.63 -74.8137
L1138.8 -74.917
L1137.96 -75.0212
L1137.12 -75.1263
L1136.29 -75.2323
L1135.45 -75.3391
L1134.61 -75.4467
L1133.78 -75.5553
L1132.94 -75.6647
L1132.1 -75.775
L1131.27 -75.8862
L1130.43 -75.9983
L1129.59 -76.1113
L1128.76 -76.2251
L1127.92 -76.3399
L1127.09 -76.4556
L1126.25 -76.5722
L1125.41 -76.6897
L1124.58 -76.8081
L1123.74 -76.9274
L1122.9 -77.0477
L1122.07 -77.1689
L1121.23 -77.291
L1120.39 -77.4141
L1119.56 -77.5381
L1118.72 -77.663
L1117.88 -77.7889
L1117.05 -77.9158
L1116.21 -78.0436
L1115.37 -78.1724
L1114.54 -78.3021
L1113.7 -78.4328
L1112.86 -78.5644
L1112.03 -78.6971
L1111.19 -78.8307
L1110.36 -78.9653
L1109.52 -79.1009
L1108.68 -79.2374
L1107.85 -79.375
L1107.01 -79.5135
L1106.17 -79.6531
L1105.34 -79.7936
L1104.5 -79.9352
L1103.66 -80.0778
L1102.83 -80.2213
L1101.99 -80.3659
L1101.15 -80.5115
L1100.32 -80.6581
L1099.48 -80.8058
L1098.64 -80.9545
L1097.81 -81.1042
L1096.97 -81.2549
L1096.13 -81.4067
L1095.3 -81.5595
L1094.46 -81.7133
L1093.63 -81.8682
L1092.79 -82.0241
L1091.95 -82.1811
L1091.12 -82.3392
L1090.28 -82.4982
L1089.44 -82.6584
L1088.61 -82.8196
L1087.77 -82.9818
L1086.93 -83.1452
L1086.1 -83.3096
L1085.26 -83.475
L1084.42 -83.6415
L1083.59 -83.8091
L1082.75 -83.9778
L1081.91 -84.1476
L1081.08 -84.3184
L1080.24 -84.4903
L1079.4 -84.6633
L1078.57 -84.8374
L1077.73 -85.0125
L1076.9 -85.1888
L1076.06 -85.3661
L1075.22 -85.5445
L1074.39 -85.7241
L1073.55 -85.9047
L1072.71 -86.0864
L1071.88 -86.2692
L1071.04 -86.4531
L1070.2 -86.6381
L1069.37 -86.8242
L1068.53 -87.0114
L1067.69 -87.1997
L1066.86 -87.3891
L1066.02 -87.5796
L1065.18 -87.7713
L1064.35 -87.964
L1063.51 -88.1578
L1062.67 -88.3527
L1061.84 -88.5488
L1061 -88.7459
L1060.17 -88.9442
L1059.33 -89.1436
L1058.49 -89.3441
L1057.66 -89.5457
L1056.82 -89.7484
L1055.98 -89.9522
L1055.15 -90.1571
L1054.31 -90.3631
L1053.47 -90.5703
L1052.64 -90.7785
L1051.8 -90.9879
L1050.96 -91.1983
L1050.13 -91.4099
L1049.29 -91.6226
L1048.45 -91.8364
L1047.62 -92.0513
L1046.78 -92.2673
L1045.94 -92.4844
L1045.11 -92.7026
L1044.27 -92.9219
L1043.44 -93.1423
L1042.6 -93.3638
L1041.76 -93.5865
L1040.93 -93.8102
L1040.09 -94.035
L1039.25 -94.2609
L1038.42 -94.4879
L1037.58 -94.716
L1036.74 -94.9452
L1035.91 -95.1754
L1035.07 -95.4068
L1034.23 -95.6392
L1033.4 -95.8728
L1032.56 -96.1074
L1031.72 -96.343
L1030.89 -96.5798
L1030.05 -96.8176
L1029.21 -97.0565
L1028.38 -97.2965
L1027.54 -97.5375
L1026.71 -97.7796
L1025.87 -98.0228
L1025.03 -98.267
L1024.2 -98.5122
L1023.36 -98.7586
L1022.52 -99.0059
L1021.69 -99.2543
L1020.85 -99.5038
L1020.01 -99.7542
L1019.18 -100.006
L1018.34 -100.258
L1017.5 -100.512
L1016.67 -100.766
L1015.83 -101.022
L1014.99 -101.279
L1014.16 -101.536
L1013.32 -101.795
L1012.48 -102.055
L1011.65 -102.315
L1010.81 -102.577
L1009.98 -102.839
L1009.14 -103.103
L1008.3 -103.368
L1007.47 -103.633
L1006.63 -103.9
L1005.79 -104.167
L1004.96 -104.435
L1004.12 -104.705
L1003.28 -104.975
L1002.45 -105.246
L1001.61 -105.518
L1000.77 -105.792
L999.937 -106.066
L999.101 -106.341
L998.264 -106.616
L997.428 -106.893
L996.591 -107.171
L995.755 -107.449
L994.918 -107.729
L994.082 -108.009
L993.245 -108.29
L992.409 -108.572
L991.572 -108.855
L990.736 -109.139
L989.899 -109.423
L989.063 -109.709
L988.226 -109.995
L987.39 -110.282
L986.553 -110.57
L985.717 -110.859
L984.88 -111.148
L984.044 -111.438
L983.207 -111.729
L982.371 -112.021
L981.534 -112.314
L980.698 -112.607
L979.861 -112.901
L979.025 -113.196
L978.188 -113.491
L977.352 -113.788
L976.515 -114.085
L975.679 -114.382
L974.842 -114.681
L974.005 -114.98
L973.169 -115.28
L972.332 -115.58
L971.496 -115.881
L970.659 -116.183
L969.823 -116.485
L968.986 -116.788
L968.15 -117.092
L967.313 -117.396
L966.477 -117.701
L965.64 -118.006
L964.804 -118.312
L963.967 -118.619
L963.131 -118.926
L962.294 -119.233
L961.458 -119.542
L960.621 -119.85
L959.785 -120.16
L958.948 -120.469
L958.112 -120.78
L957.275 -121.09
L956.439 -121.401
L955.602 -121.713
L954.766 -122.025
L953.929 -122.338
L953.093 -122.651
L952.256 -122.964
L951.42 -123.278
L950.583 -123.592
L949.747 -123.907
L948.91 -124.221
L948.074 -124.537
L947.237 -124.852
L946.401 -125.168
L945.564 -125.485
L944.728 -125.801
L943.891 -126.118
L943.055 -126.435
L942.218 -126.753
L941.382 -127.07
L940.545 -127.388
L939.709 -127.706
L938.872 -128.025
L938.036 -128.343
L937.199 -128.662
L936.363 -128.981
L935.526 -129.3
L934.69 -129.619
L933.853 -129.939
L933.017 -130.258
L932.18 -130.578
L931.344 -130.897
L930.507 -131.217
L929.671 -131.537
L928.834 -131.857
L927.998 -132.177
L927.161 -132.497
L926.325 -132.817
L925.488 -133.137
L924.652 -133.457
L923.815 -133.777
L922.979 -134.097
L922.142 -134.416
L921.306 -134.736
L920.469 -135.056
L919.633 -135.376
L918.796 -135.695
L917.96 -136.014
L917.123 -136.333
L916.287 -136.652
L915.45 -136.971
L914.614 -137.29
L913.777 -137.608
L912.941 -137.927
L912.104 -138.245
L911.268 -138.562
L910.431 -138.88
L909.595 -139.197
L908.758 -139.514
L907.922 -139.83
L907.085 -140.147
L906.249 -140.463
L905.412 -140.778
L904.576 -141.093
L903.739 -141.408
L902.903 -141.722
L902.066 -142.036
L901.23 -142.35
L900.393 -142.663
L899.557 -142.975
L898.72 -143.287
L897.884 -143.599
L897.047 -143.91
L896.211 -144.221
L895.374 -144.531
L894.538 -144.84
L893.701 -145.149
L892.865 -145.457
L892.028 -145.765
L891.192 -146.072
L890.355 -146.378
L889.519 -146.684
L888.682 -146.989
L887.846 -147.293
L887.009 -147.597
L886.173 -147.899
L885.336 -148.202
L884.5 -148.503
L883.663 -148.804
L882.827 -149.103
L881.99 -149.402
L881.154 -149.701
L880.317 -149.998
L879.481 -150.294
L878.644 -150.59
L877.808 -150.885
L876.971 -151.179
L876.135 -151.472
L875.298 -151.763
L874.462 -152.054
L873.625 -152.345
L872.789 -152.634
L871.952 -152.922
L871.116 -153.209
L870.279 -153.495
L869.443 -153.78
L868.606 -154.064
L867.77 -154.346
L866.933 -154.628
L866.097 -154.909
L865.26 -155.188
L864.424 -155.467
L863.587 -155.744
L862.751 -156.02
L861.914 -156.295
L861.078 -156.568
L860.241 -156.84
L859.405 -157.112
L858.568 -157.382
L857.732 -157.65
L856.895 -157.917
L856.059 -158.183
L855.222 -158.448
L854.386 -158.711
L853.549 -158.974
L852.713 -159.234
L851.876 -159.493
L851.04 -159.751
L850.203 -160.008
L849.367 -160.263
L848.53 -160.516
L847.694 -160.769
L846.857 -161.019
L846.021 -161.268
L845.184 -161.516
L844.348 -161.762
L843.511 -162.007
L842.675 -162.25
L841.838 -162.491
L841.002 -162.731
L840.165 -162.97
L839.329 -163.207
L838.492 -163.442
L837.656 -163.675
L836.819 -163.907
L835.983 -164.137
L835.146 -164.366
L834.31 -164.593
L833.473 -164.818
L832.637 -165.041
L831.8 -165.263
L830.964 -165.483
L830.127 -165.701
L829.291 -165.917
L828.454 -166.132
L827.618 -166.345
L826.781 -166.556
L825.945 -166.765
L825.108 -166.972
L824.272 -167.178
L823.435 -167.381
L822.599 -167.583
L821.762 -167.783
L820.926 -167.981
L820.089 -168.177
L819.253 -168.371
L818.416 -168.563
L817.58 -168.754
L816.743 -168.942
L815.907 -169.128
L815.07 -169.313
L814.234 -169.495
L813.397 -169.675
L812.561 -169.853
L811.724 -170.03
L810.888 -170.204
L810.051 -170.376
L809.215 -170.546
L808.378 -170.714
L807.542 -170.88
L806.705 -171.044
L805.869 -171.206
L805.032 -171.365
L804.196 -171.523
L803.359 -171.678
L802.523 -171.831
L801.686 -171.982
L800.85 -172.131
L800.013 -172.278
L799.177 -172.422
L798.34 -172.564
L797.504 -172.704
L796.667 -172.842
L795.831 -172.978
L794.994 -173.111
L794.158 -173.242
L793.321 -173.371
L792.485 -173.498
L791.648 -173.622
L790.812 -173.744
L789.975 -173.864
L789.139 -173.982
L788.302 -174.097
L787.466 -174.21
L786.629 -174.32
L785.793 -174.429
L784.956 -174.535
L784.12 -174.638
L783.283 -174.739
L782.447 -174.838
L781.61 -174.935
L780.774 -175.029
L779.937 -175.121
L779.101 -175.21
L778.264 -175.297
L777.428 -175.382
L776.591 -175.464
L775.755 -175.544
L774.918 -175.622
L774.082 -175.697
L773.245 -175.769
L772.409 -175.84
L771.572 -175.907
L770.736 -175.973
L769.899 -176.036
L769.063 -176.096
L768.226 -176.154
L767.39 -176.21
L766.553 -176.263
L765.717 -176.314
L764.88 -176.362
L764.044 -176.408
L763.207 -176.452
L762.371 -176.492
L761.534 -176.531
L760.698 -176.567
L759.861 -176.6
L759.025 -176.631
L758.188 -176.66
L757.352 -176.686
L756.515 -176.71
L755.679 -176.731
L754.842 -176.749
L754.006 -176.766
L753.169 -176.779
L752.333 -176.79
L751.496 -176.799
L750.66 -176.805
L749.823 -176.809
L748.987 -176.81
L748.15 -176.809
L747.314 -176.805
L746.477 -176.799
L745.641 -176.79
L744.804 -176.779
L743.968 -176.766
L743.131 -176.749
L742.295 -176.731
L741.458 -176.71
L740.621 -176.686
L739.785 -176.66
L738.948 -176.631
L738.112 -176.6
L737.275 -176.567
L736.439 -176.531
L735.602 -176.492
L734.766 -176.452
L733.929 -176.408
L733.093 -176.362
L732.256 -176.314
L731.42 -176.263
L730.583 -176.21
L729.747 -176.154
L728.91 -176.096
L728.074 -176.036
L727.237 -175.973
L726.401 -175.907
L725.564 -175.84
L724.728 -175.769
L723.891 -175.697
L723.055 -175.622
L722.218 -175.544
L721.382 -175.464
L720.545 -175.382
L719.709 -175.297
L718.872 -175.21
L718.036 -175.121
L717.199 -175.029
L716.363 -174.935
L715.526 -174.838
L714.69 -174.739
L713.853 -174.638
L713.017 -174.535
L712.18 -174.429
L711.344 -174.32
L710.507 -174.21
L709.671 -174.097
L708.834 -173.982
L707.998 -173.864
L707.161 -173.744
L706.325 -173.622
L705.488 -173.498
L704.652 -173.371
L703.815 -173.242
L702.979 -173.111
L702.142 -172.978
L701.306 -172.842
L700.469 -172.704
L699.633 -172.564
L698.796 -172.422
L697.96 -172.278
L697.123 -172.131
L696.287 -171.982
L695.45 -171.831
L694.614 -171.678
L693.777 -171.523
L692.941 -171.365
L692.104 -171.206
L691.268 -171.044
L690.431 -170.88
L689.595 -170.714
L688.758 -170.546
L687.922 -170.376
L687.085 -170.204
L686.249 -170.03
L685.412 -169.853
L684.576 -169.675
L683.739 -169.495
L682.903 -169.313
L682.066 -169.128
L681.23 -168.942
L680.393 -168.754
L679.557 -168.563
L678.72 -168.371
L677.884 -168.177
L677.047 -167.981
L676.211 -167.783
L675.374 -167.583
L674.538 -167.381
L673.701 -167.178
L672.865 -166.972
L672.028 -166.765
L671.192 -166.556
L670.355 -166.345
L669.519 -166.132
L668.682 -165.917
L667.846 -165.701
L667.009 -165.483
L666.173 -165.263
L665.336 -165.041
L664.5 -164.818
L663.663 -164.593
L662.827 -164.366
L661.99 -164.137
L661.154 -163.907
L660.317 -163.675
L659.481 -163.442
L658.644 -163.207
L657.808 -162.97
L656.971 -162.731
L656.135 -162.491
L655.298 -162.25
L654.462 -162.007
L653.625 -161.762
L652.789 -161.516
L651.952 -161.268
L651.116 -161.019
L650.279 -160.769
L649.443 -160.516
L648.606 -160.263
L647.77 -160.008
L646.933 -159.751
L646.097 -159.493
L645.26 -159.234
L644.424 -158.974
L643.587 -158.711
L642.751 -158.448
L641.914 -158.183
L641.078 -157.917
L640.241 -157.65
L639.405 -157.382
L638.568 -157.112
L637.732 -156.84
L636.895 -156.568
L636.059 -156.295
L635.222 -156.02
L634.386 -155.744
L633.549 -155.467
L632.713 -155.188
L631.876 -154.909
L631.04 -154.628
L630.203 -154.346
L629.367 -154.064
L628.53 -153.78
L627.694 -153.495
L626.857 -153.209
L626.021 -152.922
L625.184 -152.634
L624.348 -152.345
L623.511 -152.054
L622.675 -151.763
L621.838 -151.472
L621.002 -151.179
L620.165 -150.885
L619.329 -150.59
L618.492 -150.294
L617.656 -149.998
L616.819 -149.701
L615.983 -149.402
L615.146 -149.103
L614.31 -148.804
L613.473 -148.503
L612.637 -148.202
L611.8 -147.899
L610.964 -147.597
L610.127 -147.293
L609.291 -146.989
L608.454 -146.684
L607.618 -146.378
L606.781 -146.072
L605.945 -145.765
L605.108 -145.457
L604.272 -145.149
L603.435 -144.84
L602.599 -144.531
L601.762 -144.221
L600.926 -143.91
L600.089 -143.599
L599.253 -143.287
L598.416 -142.975
L597.58 -142.663
L596.743 -142.35
L595.907 -142.036
L595.07 -141.722
L594.234 -141.408
L593.397 -141.093
L592.561 -140.778
L591.724 -140.463
L590.888 -140.147
L590.051 -139.83
L589.215 -139.514
L588.378 -139.197
L587.542 -138.88
L586.705 -138.562
L585.869 -138.245
L585.032 -137.927
L584.196 -137.608
L583.359 -137.29
L582.523 -136.971
L581.686 -136.652
L580.85 -136.333
L580.013 -136.014
L579.177 -135.695
L578.34 -135.376
L577.504 -135.056
L576.667 -134.736
L575.831 -134.416
L574.994 -134.097
L574.158 -133.777
L573.321 -133.457
L572.485 -133.137
L571.648 -132.817
L570.812 -132.497
L569.975 -132.177
L569.139 -131.857
L568.302 -131.537
L567.466 -131.217
L566.629 -130.897
L565.793 -130.578
L564.956 -130.258
L564.12 -129.939
L563.283 -129.619
L562.447 -129.3
L561.61 -128.981
L560.774 -128.662
L559.937 -128.343
L559.101 -128.025
L558.264 -127.706
L557.428 -127.388
L556.591 -127.07
L555.755 -126.753
L554.918 -126.435
L554.082 -126.118
L553.245 -125.801
L552.409 -125.485
L551.572 -125.168
L550.736 -124.852
L549.899 -124.537
L549.063 -124.221
L548.226 -123.907
L547.39 -123.592
L546.553 -123.278
L545.717 -122.964
L544.88 -122.651
L544.044 -122.338
L543.207 -122.025
L542.371 -121.713
L541.534 -121.401
L540.698 -121.09
L539.861 -120.78
L539.025 -120.469
L538.188 -120.16
L537.352 -119.85
L536.515 -119.542
L535.679 -119.233
L534.842 -118.926
L534.006 -118.619
L533.169 -118.312
L532.333 -118.006
L531.496 -117.701
L530.66 -117.396
L529.823 -117.092
L528.987 -116.788
L528.15 -116.485
L527.314 -116.183
L526.477 -115.881
L525.641 -115.58
L524.804 -115.28
L523.968 -114.98
L523.131 -114.681
L522.295 -114.382
L521.458 -114.085
L520.622 -113.788
L519.785 -113.491
L518.949 -113.196
L518.112 -112.901
L517.276 -112.607
L516.439 -112.314
L515.603 -112.021
L514.766 -111.729
L513.93 -111.438
L513.093 -111.148
L512.257 -110.859
L511.42 -110.57
L510.584 -110.282
L509.747 -109.995
L508.911 -109.709
L508.074 -109.423
L507.238 -109.139
L506.401 -108.855
L505.564 -108.572
L504.728 -108.29
L503.891 -108.009
L503.055 -107.729
L502.218 -107.449
L501.382 -107.171
L500.545 -106.893
L499.709 -106.616
L498.872 -106.341
L498.036 -106.066
L497.199 -105.792
L496.363 -105.518
L495.526 -105.246
L494.69 -104.975
L493.853 -104.705
L493.017 -104.435
L492.18 -104.167
L491.344 -103.9
L490.507 -103.633
L489.671 -103.368
L488.834 -103.103
L487.998 -102.839
L487.161 -102.577
L486.325 -102.315
L485.488 -102.055
L484.652 -101.795
L483.815 -101.536
L482.979 -101.279
L482.142 -101.022
L481.306 -100.766
L480.469 -100.512
L479.633 -100.258
L478.796 -100.006
L477.96 -99.7542
L477.123 -99.5038
L476.287 -99.2543
L475.45 -99.0059
L474.614 -98.7586
L473.777 -98.5122
L472.941 -98.267
L472.104 -98.0228
L471.268 -97.7796
L470.431 -97.5375
L469.595 -97.2965
L468.758 -97.0565
L467.922 -96.8176
L467.085 -96.5798
L466.249 -96.343
L465.412 -96.1074
L464.576 -95.8728
L463.739 -95.6392
L462.903 -95.4068
L462.066 -95.1754
L461.23 -94.9452
L460.393 -94.716
L459.557 -94.4879
L458.72 -94.2609
L457.884 -94.035
L457.047 -93.8102
L456.211 -93.5865
L455.374 -93.3638
L454.538 -93.1423
L453.701 -92.9219
L452.865 -92.7026
L452.028 -92.4844
L451.192 -92.2673
L450.355 -92.0513
L449.519 -91.8364
L448.682 -91.6226
L447.846 -91.4099
L447.009 -91.1983
L446.173 -90.9879
L445.336 -90.7785
L444.5 -90.5703
L443.663 -90.3631
L442.827 -90.1571
L441.99 -89.9522
L441.154 -89.7484
L440.317 -89.5457
L439.481 -89.3441
L438.644 -89.1436
L437.808 -88.9442
L436.971 -88.7459
L436.135 -88.5488
L435.298 -88.3527
L434.462 -88.1578
L433.625 -87.964
L432.789 -87.7713
L431.952 -87.5796
L431.116 -87.3891
L430.279 -87.1997
L429.443 -87.0114
L428.606 -86.8242
L427.77 -86.6381
L426.933 -86.4531
L426.097 -86.2692
L425.26 -86.0864
L424.424 -85.9047
L423.587 -85.7241
L422.751 -85.5445
L421.914 -85.3661
L421.078 -85.1888
L420.241 -85.0125
L419.405 -84.8374
L418.568 -84.6633
L417.732 -84.4903
L416.895 -84.3184
L416.059 -84.1476
L415.222 -83.9778
L414.386 -83.8091
L413.549 -83.6415
L412.713 -83.475
L411.876 -83.3096
L411.04 -83.1452
L410.203 -82.9818
L409.367 -82.8196
L408.53 -82.6584
L407.694 -82.4982
L406.857 -82.3392
L406.021 -82.1811
L405.184 -82.0241
L404.348 -81.8682
L403.511 -81.7133
L402.675 -81.5595
L401.838 -81.4067
L401.002 -81.2549
L400.165 -81.1042
L399.329 -80.9545
L398.492 -80.8058
L397.656 -80.6581
L396.819 -80.5115
L395.983 -80.3659
L395.146 -80.2213
L394.31 -80.0778
L393.473 -79.9352
L392.637 -79.7936
L391.8 -79.6531
L390.964 -79.5135
L390.127 -79.375
L389.291 -79.2374
L388.454 -79.1009
L387.618 -78.9653
L386.781 -78.8307
L385.945 -78.6971
L385.108 -78.5644
L384.272 -78.4328
L383.435 -78.3021
L382.599 -78.1724
L381.762 -78.0436
L380.926 -77.9158
L380.089 -77.7889
L379.253 -77.663
L378.416 -77.5381
L377.58 -77.4141
L376.743 -77.291
L375.907 -77.1689
L375.07 -77.0477
L374.234 -76.9274
L373.397 -76.8081
L372.561 -76.6897
L371.724 -76.5722
L370.888 -76.4556
L370.051 -76.3399
L369.215 -76.2251
L368.378 -76.1113
L367.542 -75.9983
L366.705 -75.8862
L365.869 -75.775
L365.032 -75.6647
L364.196 -75.5553
L363.359 -75.4467
L362.523 -75.3391
L361.686 -75.2323
L360.85 -75.1263
L360.013 -75.0212
L359.177 -74.917
L358.34 -74.8137
L357.504 -74.7111
L356.667 -74.6094
L355.831 -74.5086
L354.994 -74.4086
L354.158 -74.3094
L353.321 -74.2111
L352.485 -74.1136
L351.648 -74.0168
L350.812 -73.921
L349.975 -73.8259
L349.139 -73.7316
L348.302 -73.6381
L347.466 -73.5454
L346.629 -73.4535
L345.793 -73.3624
L344.956 -73.2721
L344.12 -73.1826
L343.283 -73.0938
L342.447 -73.0058
L341.61 -72.9186
L340.774 -72.8321
L339.937 -72.7464
L339.101 -72.6615
L338.264 -72.5773
L337.428 -72.4938
L336.591 -72.4111
L335.755 -72.3291
L334.918 -72.2478
L334.082 -72.1673
L333.245 -72.0875
L332.409 -72.0084
L331.572 -71.93
L330.736 -71.8523
L329.899 -71.7754
L329.063 -71.6991
L328.226 -71.6235
L327.39 -71.5487
L326.553 -71.4745
L325.717 -71.401
L324.88 -71.3281
L324.044 -71.256
L323.207 -71.1845
L322.371 -71.1137
L321.534 -71.0435
L320.698 -70.974
L319.861 -70.9051
L319.025 -70.8369
L318.188 -70.7694
L317.352 -70.7024
L316.515 -70.6361
L315.679 -70.5705
L314.842 -70.5055
L314.006 -70.441
L313.169 -70.3772
L312.333 -70.3141
L311.496 -70.2515
L310.66 -70.1895
L309.823 -70.1282
L308.987 -70.0674
L308.15 -70.0072
L307.314 -69.9476
L306.477 -69.8886
L305.641 -69.8302
L304.804 -69.7723
L303.968 -69.715
L303.131 -69.6583
L302.295 -69.6022
L301.458 -69.5466
L300.622 -69.4915
L299.785 -69.4371
L298.949 -69.3831
L298.112 -69.3297
L297.276 -69.2768
L296.439 -69.2245
L295.603 -69.1727
L294.766 -69.1214
L293.93 -69.0707
L293.093 -69.0204
L292.257 -68.9707
L291.42 -68.9215
L290.584 -68.8728
L289.747 -68.8246
L288.911 -68.7769
L288.074 -68.7297
L287.238 -68.6829
L286.401 -68.6367
L285.565 -68.591
L284.728 -68.5457
L283.892 -68.5009
L283.055 -68.4565
L282.219 -68.4127
L281.382 -68.3693
L280.546 -68.3263
L279.709 -68.2838
L278.873 -68.2418
L278.036 -68.2002
L277.2 -68.1591
L276.363 -68.1184
L275.527 -68.0781
L274.69 -68.0382
L273.854 -67.9988
L273.017 -67.9599
L272.18 -67.9213
L271.344 -67.8832
L270.507 -67.8454
L269.671 -67.8081
L268.834 -67.7712
L267.998 -67.7347
L267.161 -67.6986
L266.325 -67.6629
L265.488 -67.6276
L264.652 -67.5927
L263.815 -67.5581
L262.979 -67.524
L262.142 -67.4902
L261.306 -67.4568
L260.469 -67.4238
L259.633 -67.3912
L258.796 -67.3589
L257.96 -67.327
L257.123 -67.2954
L256.287 -67.2642
L255.45 -67.2333
L254.614 -67.2028
L253.777 -67.1727
L252.941 -67.1429
L252.104 -67.1134
L251.268 -67.0843
L250.431 -67.0555
L249.595 -67.027
L248.758 -66.9989
L247.922 -66.9711
L247.085 -66.9436
L246.249 -66.9164
L245.412 -66.8895
L244.576 -66.863
L243.739 -66.8368
L242.903 -66.8108
L242.066 -66.7852
L241.23 -66.7599
L240.393 -66.7349
L239.557 -66.7101
L238.72 -66.6857
L237.884 -66.6616
L237.047 -66.6377
L236.211 -66.6141
L235.374 -66.5908
L234.538 -66.5678
L233.701 -66.5451
L232.865 -66.5226
L232.028 -66.5004
L231.192 -66.4785
L230.355 -66.4568
L229.519 -66.4354
L228.682 -66.4143
L227.846 -66.3934
L227.009 -66.3727
L226.173 -66.3523
L225.336 -66.3322
L224.5 -66.3123
L223.663 -66.2927
L222.827 -66.2733
L221.99 -66.2541
L221.154 -66.2352
L220.317 -66.2165
L219.481 -66.198
L218.644 -66.1798
L217.808 -66.1618
L216.971 -66.144
L216.135 -66.1265
L215.298 -66.1091
L214.462 -66.092
L213.625 -66.0751
L212.789 -66.0584
L211.952 -66.0419
L211.116 -66.0256
L210.279 -66.0096
L209.443 -65.9937
L208.606 -65.978
L207.77 -65.9626
L206.933 -65.9473
L206.097 -65.9322
L205.26 -65.9173
L204.424 -65.9026
L203.587 -65.8881
L202.751 -65.8738
L201.914 -65.8597
L201.078 -65.8457
L200.241 -65.832
L199.405 -65.8184
L198.568 -65.805
L197.732 -65.7917
L196.895 -65.7787
L196.059 -65.7658
L195.222 -65.7531
L194.386 -65.7405
L193.549 -65.7281
L192.713 -65.7159
L191.876 -65.7038
L191.04 -65.6919
L190.203 -65.6801
L189.367 -65.6686
L188.53 -65.6571
L187.694 -65.6458
L186.857 -65.6347
L186.021 -65.6237
L185.184 -65.6128
L184.348 -65.6022
L183.511 -65.5916
L182.675 -65.5812
L181.838 -65.5709
L181.002 -65.5608
L180.165 -65.5508
L179.329 -65.5409
L178.492 -65.5312
L177.656 -65.5216
L176.819 -65.5121
L175.983 -65.5028
L175.146 -65.4936
L174.31 -65.4845
L173.473 -65.4756
L172.637 -65.4667
L171.8 -65.458
L170.964 -65.4494
L170.127 -65.4409
L169.291 -65.4326
L168.454 -65.4243
L167.618 -65.4162
L166.781 -65.4082
L165.945 -65.4003
L165.108 -65.3925
L164.272 -65.3848
L163.435 -65.3773
z
" id="C1_0_a54a1c29ca"/>
    </defs>
    <g clip-path="url(#p763f09ebec)">
     <use style="fill:#ff0000;fill-opacity:0.5;stroke:#ff0000;stroke-opacity:0.5;" x="0.0" xlink:href="#C1_0_a54a1c29ca" y="414.540625"/>
    </g>
   </g>
   <g id="line2d_1">
    <path clip-path="url(#p763f09ebec)" d="
M163.435 349.647
L762.371 349.541
L780.774 349.296
L792.485 348.931
L801.686 348.426
L809.215 347.792
L815.907 346.992
L821.762 346.052
L826.781 345.022
L831.8 343.739
L835.983 342.442
L840.165 340.904
L844.348 339.09
L847.694 337.416
L851.04 335.522
L854.386 333.386
L857.732 330.987
L861.078 328.303
L864.424 325.311
L867.77 321.987
L871.116 318.311
L874.462 314.259
L877.808 309.811
L881.154 304.947
L884.5 299.65
L887.846 293.903
L891.192 287.694
L894.538 281.014
L897.884 273.857
L901.23 266.22
L904.576 258.108
L908.758 247.31
L912.941 235.81
L917.123 223.649
L922.142 208.265
L927.161 192.14
L933.853 169.771
L955.602 96.1209
L959.785 82.989
L963.967 70.5759
L967.313 61.2706
L970.659 52.607
L974.005 44.6607
L976.515 39.2144
L979.025 34.2391
L981.534 29.7604
L984.044 25.8015
L986.553 22.3832
L988.226 20.4137
L989.899 18.6972
L991.572 17.2378
L993.245 16.039
L994.918 15.1036
L996.591 14.4338
L998.264 14.0313
L999.937 13.8971
L1001.61 14.0313
L1003.28 14.4338
L1004.96 15.1036
L1006.63 16.039
L1008.3 17.2378
L1009.98 18.6972
L1011.65 20.4137
L1013.32 22.3832
L1014.99 24.601
L1017.5 28.3819
L1020.01 32.6898
L1022.52 37.5023
L1025.03 42.7946
L1027.54 48.5397
L1030.89 56.8537
L1034.23 65.8479
L1037.58 75.4445
L1041.76 88.1646
L1046.78 104.277
L1052.64 123.888
L1074.39 197.588
L1079.4 213.482
L1084.42 228.589
L1088.61 240.492
L1092.79 251.716
L1096.97 262.223
L1100.32 270.098
L1103.66 277.496
L1107.01 284.414
L1110.36 290.857
L1113.7 296.833
L1117.05 302.354
L1120.39 307.432
L1123.74 312.086
L1127.09 316.333
L1130.43 320.195
L1133.78 323.692
L1137.12 326.847
L1140.47 329.682
L1143.82 332.221
L1147.16 334.485
L1150.51 336.498
L1153.85 338.279
L1157.2 339.851
L1161.38 341.55
L1165.56 342.988
L1167.24 343.497
L1167.24 343.497" style="fill:none;stroke:#000000;stroke-linecap:square;"/>
   </g>
   <g id="line2d_2">
    <path clip-path="url(#p763f09ebec)" d="
M163.435 349.163
L198.568 348.736
L226.173 348.188
L249.595 347.514
L270.507 346.695
L288.911 345.764
L306.477 344.652
L322.371 343.427
L337.428 342.047
L351.648 340.524
L365.032 338.876
L378.416 337.003
L390.964 335.027
L403.511 332.827
L416.059 330.393
L427.77 327.903
L439.481 325.197
L451.192 322.273
L462.903 319.134
L475.45 315.535
L487.998 311.701
L501.382 307.37
L515.603 302.52
L530.66 297.145
L548.226 290.634
L575.831 280.124
L602.599 270.01
L618.492 264.246
L631.876 259.632
L643.587 255.829
L654.462 252.534
L664.5 249.723
L673.701 247.363
L682.903 245.228
L692.104 243.335
L700.469 241.836
L708.834 240.559
L717.199 239.512
L725.564 238.701
L733.929 238.132
L742.295 237.81
L749.823 237.732
L757.352 237.855
L764.88 238.178
L773.245 238.771
L781.61 239.606
L789.975 240.676
L798.34 241.976
L806.705 243.497
L815.07 245.228
L824.272 247.363
L833.473 249.723
L843.511 252.534
L854.386 255.829
L866.097 259.632
L878.644 263.951
L892.865 269.084
L911.268 275.978
L966.477 296.84
L982.371 302.52
L996.591 307.37
L1009.98 311.701
L1022.52 315.535
L1035.07 319.134
L1047.62 322.489
L1059.33 325.397
L1071.04 328.088
L1082.75 330.563
L1095.3 332.981
L1107.85 335.166
L1120.39 337.127
L1133.78 338.985
L1147.16 340.62
L1161.38 342.13
L1167.24 342.688
L1167.24 342.688" style="fill:none;stroke:#000000;stroke-linecap:square;"/>
   </g>
  </g>
 </g>
 <defs>
  <clipPath id="p763f09ebec">
   <rect height="378.72" width="1171.1025" x="37.96" y="13.006875"/>
  </clipPath>
 </defs>
</svg>
